%TF.GenerationSoftware,KiCad,Pcbnew,(7.0.0)*%
%TF.CreationDate,2023-08-25T15:33:25+02:00*%
%TF.ProjectId,PSP GO JIG_0805_Nano,50535020-474f-4204-9a49-475f30383035,rev?*%
%TF.SameCoordinates,Original*%
%TF.FileFunction,Legend,Bot*%
%TF.FilePolarity,Positive*%
%FSLAX46Y46*%
G04 Gerber Fmt 4.6, Leading zero omitted, Abs format (unit mm)*
G04 Created by KiCad (PCBNEW (7.0.0)) date 2023-08-25 15:33:25*
%MOMM*%
%LPD*%
G01*
G04 APERTURE LIST*
%ADD10C,0.100000*%
%ADD11C,0.125000*%
G04 APERTURE END LIST*
D10*
X69460000Y-36190000D02*
X76200000Y-36190000D01*
X76200000Y-36190000D02*
X76200000Y-40010000D01*
X76200000Y-40010000D02*
X69460000Y-40010000D01*
X69460000Y-40010000D02*
X69460000Y-36190000D01*
X69460000Y-40010000D02*
X76200000Y-40010000D01*
X76200000Y-40010000D02*
X76200000Y-43830000D01*
X76200000Y-43830000D02*
X69460000Y-43830000D01*
X69460000Y-43830000D02*
X69460000Y-40010000D01*
X69460000Y-32370000D02*
X76200000Y-32370000D01*
X76200000Y-32370000D02*
X76200000Y-36190000D01*
X76200000Y-36190000D02*
X69460000Y-36190000D01*
X69460000Y-36190000D02*
X69460000Y-32370000D01*
D11*
X75666666Y-41409666D02*
X76066666Y-41409666D01*
X75866666Y-41409666D02*
X75866666Y-40709666D01*
X75866666Y-40709666D02*
X75933333Y-40809666D01*
X75933333Y-40809666D02*
X76000000Y-40876333D01*
X76000000Y-40876333D02*
X76066666Y-40909666D01*
X75366666Y-41343000D02*
X75333333Y-41376333D01*
X75333333Y-41376333D02*
X75366666Y-41409666D01*
X75366666Y-41409666D02*
X75399999Y-41376333D01*
X75399999Y-41376333D02*
X75366666Y-41343000D01*
X75366666Y-41343000D02*
X75366666Y-41409666D01*
X74933333Y-41009666D02*
X75000000Y-40976333D01*
X75000000Y-40976333D02*
X75033333Y-40943000D01*
X75033333Y-40943000D02*
X75066666Y-40876333D01*
X75066666Y-40876333D02*
X75066666Y-40843000D01*
X75066666Y-40843000D02*
X75033333Y-40776333D01*
X75033333Y-40776333D02*
X75000000Y-40743000D01*
X75000000Y-40743000D02*
X74933333Y-40709666D01*
X74933333Y-40709666D02*
X74800000Y-40709666D01*
X74800000Y-40709666D02*
X74733333Y-40743000D01*
X74733333Y-40743000D02*
X74700000Y-40776333D01*
X74700000Y-40776333D02*
X74666666Y-40843000D01*
X74666666Y-40843000D02*
X74666666Y-40876333D01*
X74666666Y-40876333D02*
X74700000Y-40943000D01*
X74700000Y-40943000D02*
X74733333Y-40976333D01*
X74733333Y-40976333D02*
X74800000Y-41009666D01*
X74800000Y-41009666D02*
X74933333Y-41009666D01*
X74933333Y-41009666D02*
X75000000Y-41043000D01*
X75000000Y-41043000D02*
X75033333Y-41076333D01*
X75033333Y-41076333D02*
X75066666Y-41143000D01*
X75066666Y-41143000D02*
X75066666Y-41276333D01*
X75066666Y-41276333D02*
X75033333Y-41343000D01*
X75033333Y-41343000D02*
X75000000Y-41376333D01*
X75000000Y-41376333D02*
X74933333Y-41409666D01*
X74933333Y-41409666D02*
X74800000Y-41409666D01*
X74800000Y-41409666D02*
X74733333Y-41376333D01*
X74733333Y-41376333D02*
X74700000Y-41343000D01*
X74700000Y-41343000D02*
X74666666Y-41276333D01*
X74666666Y-41276333D02*
X74666666Y-41143000D01*
X74666666Y-41143000D02*
X74700000Y-41076333D01*
X74700000Y-41076333D02*
X74733333Y-41043000D01*
X74733333Y-41043000D02*
X74800000Y-41009666D01*
X74466666Y-40709666D02*
X74233333Y-41409666D01*
X74233333Y-41409666D02*
X73999999Y-40709666D01*
X75633333Y-42543666D02*
X75866666Y-42210333D01*
X76033333Y-42543666D02*
X76033333Y-41843666D01*
X76033333Y-41843666D02*
X75766666Y-41843666D01*
X75766666Y-41843666D02*
X75700000Y-41877000D01*
X75700000Y-41877000D02*
X75666666Y-41910333D01*
X75666666Y-41910333D02*
X75633333Y-41977000D01*
X75633333Y-41977000D02*
X75633333Y-42077000D01*
X75633333Y-42077000D02*
X75666666Y-42143666D01*
X75666666Y-42143666D02*
X75700000Y-42177000D01*
X75700000Y-42177000D02*
X75766666Y-42210333D01*
X75766666Y-42210333D02*
X76033333Y-42210333D01*
X74966666Y-42543666D02*
X75366666Y-42543666D01*
X75166666Y-42543666D02*
X75166666Y-41843666D01*
X75166666Y-41843666D02*
X75233333Y-41943666D01*
X75233333Y-41943666D02*
X75300000Y-42010333D01*
X75300000Y-42010333D02*
X75366666Y-42043666D01*
X74666666Y-42177000D02*
X74133333Y-42177000D01*
X74133333Y-42377000D02*
X74666666Y-42377000D01*
X73666666Y-41843666D02*
X73599999Y-41843666D01*
X73599999Y-41843666D02*
X73533332Y-41877000D01*
X73533332Y-41877000D02*
X73499999Y-41910333D01*
X73499999Y-41910333D02*
X73466666Y-41977000D01*
X73466666Y-41977000D02*
X73433332Y-42110333D01*
X73433332Y-42110333D02*
X73433332Y-42277000D01*
X73433332Y-42277000D02*
X73466666Y-42410333D01*
X73466666Y-42410333D02*
X73499999Y-42477000D01*
X73499999Y-42477000D02*
X73533332Y-42510333D01*
X73533332Y-42510333D02*
X73599999Y-42543666D01*
X73599999Y-42543666D02*
X73666666Y-42543666D01*
X73666666Y-42543666D02*
X73733332Y-42510333D01*
X73733332Y-42510333D02*
X73766666Y-42477000D01*
X73766666Y-42477000D02*
X73799999Y-42410333D01*
X73799999Y-42410333D02*
X73833332Y-42277000D01*
X73833332Y-42277000D02*
X73833332Y-42110333D01*
X73833332Y-42110333D02*
X73799999Y-41977000D01*
X73799999Y-41977000D02*
X73766666Y-41910333D01*
X73766666Y-41910333D02*
X73733332Y-41877000D01*
X73733332Y-41877000D02*
X73666666Y-41843666D01*
X72633332Y-41810333D02*
X73233332Y-42710333D01*
X72166666Y-42177000D02*
X72066666Y-42210333D01*
X72066666Y-42210333D02*
X72033332Y-42243666D01*
X72033332Y-42243666D02*
X71999999Y-42310333D01*
X71999999Y-42310333D02*
X71999999Y-42410333D01*
X71999999Y-42410333D02*
X72033332Y-42477000D01*
X72033332Y-42477000D02*
X72066666Y-42510333D01*
X72066666Y-42510333D02*
X72133332Y-42543666D01*
X72133332Y-42543666D02*
X72399999Y-42543666D01*
X72399999Y-42543666D02*
X72399999Y-41843666D01*
X72399999Y-41843666D02*
X72166666Y-41843666D01*
X72166666Y-41843666D02*
X72099999Y-41877000D01*
X72099999Y-41877000D02*
X72066666Y-41910333D01*
X72066666Y-41910333D02*
X72033332Y-41977000D01*
X72033332Y-41977000D02*
X72033332Y-42043666D01*
X72033332Y-42043666D02*
X72066666Y-42110333D01*
X72066666Y-42110333D02*
X72099999Y-42143666D01*
X72099999Y-42143666D02*
X72166666Y-42177000D01*
X72166666Y-42177000D02*
X72399999Y-42177000D01*
X71699999Y-42543666D02*
X71699999Y-42077000D01*
X71699999Y-42210333D02*
X71666666Y-42143666D01*
X71666666Y-42143666D02*
X71633332Y-42110333D01*
X71633332Y-42110333D02*
X71566666Y-42077000D01*
X71566666Y-42077000D02*
X71499999Y-42077000D01*
X75633333Y-43677666D02*
X75866666Y-43344333D01*
X76033333Y-43677666D02*
X76033333Y-42977666D01*
X76033333Y-42977666D02*
X75766666Y-42977666D01*
X75766666Y-42977666D02*
X75700000Y-43011000D01*
X75700000Y-43011000D02*
X75666666Y-43044333D01*
X75666666Y-43044333D02*
X75633333Y-43111000D01*
X75633333Y-43111000D02*
X75633333Y-43211000D01*
X75633333Y-43211000D02*
X75666666Y-43277666D01*
X75666666Y-43277666D02*
X75700000Y-43311000D01*
X75700000Y-43311000D02*
X75766666Y-43344333D01*
X75766666Y-43344333D02*
X76033333Y-43344333D01*
X75366666Y-43044333D02*
X75333333Y-43011000D01*
X75333333Y-43011000D02*
X75266666Y-42977666D01*
X75266666Y-42977666D02*
X75100000Y-42977666D01*
X75100000Y-42977666D02*
X75033333Y-43011000D01*
X75033333Y-43011000D02*
X75000000Y-43044333D01*
X75000000Y-43044333D02*
X74966666Y-43111000D01*
X74966666Y-43111000D02*
X74966666Y-43177666D01*
X74966666Y-43177666D02*
X75000000Y-43277666D01*
X75000000Y-43277666D02*
X75400000Y-43677666D01*
X75400000Y-43677666D02*
X74966666Y-43677666D01*
X74666666Y-43311000D02*
X74133333Y-43311000D01*
X74133333Y-43511000D02*
X74666666Y-43511000D01*
X73799999Y-43677666D02*
X73799999Y-42977666D01*
X73799999Y-42977666D02*
X73399999Y-43677666D01*
X73399999Y-43677666D02*
X73399999Y-42977666D01*
X72666666Y-43611000D02*
X72699999Y-43644333D01*
X72699999Y-43644333D02*
X72799999Y-43677666D01*
X72799999Y-43677666D02*
X72866666Y-43677666D01*
X72866666Y-43677666D02*
X72966666Y-43644333D01*
X72966666Y-43644333D02*
X73033333Y-43577666D01*
X73033333Y-43577666D02*
X73066666Y-43511000D01*
X73066666Y-43511000D02*
X73099999Y-43377666D01*
X73099999Y-43377666D02*
X73099999Y-43277666D01*
X73099999Y-43277666D02*
X73066666Y-43144333D01*
X73066666Y-43144333D02*
X73033333Y-43077666D01*
X73033333Y-43077666D02*
X72966666Y-43011000D01*
X72966666Y-43011000D02*
X72866666Y-42977666D01*
X72866666Y-42977666D02*
X72799999Y-42977666D01*
X72799999Y-42977666D02*
X72699999Y-43011000D01*
X72699999Y-43011000D02*
X72666666Y-43044333D01*
X71866666Y-42944333D02*
X72466666Y-43844333D01*
X71500000Y-42977666D02*
X71366666Y-42977666D01*
X71366666Y-42977666D02*
X71300000Y-43011000D01*
X71300000Y-43011000D02*
X71233333Y-43077666D01*
X71233333Y-43077666D02*
X71200000Y-43211000D01*
X71200000Y-43211000D02*
X71200000Y-43444333D01*
X71200000Y-43444333D02*
X71233333Y-43577666D01*
X71233333Y-43577666D02*
X71300000Y-43644333D01*
X71300000Y-43644333D02*
X71366666Y-43677666D01*
X71366666Y-43677666D02*
X71500000Y-43677666D01*
X71500000Y-43677666D02*
X71566666Y-43644333D01*
X71566666Y-43644333D02*
X71633333Y-43577666D01*
X71633333Y-43577666D02*
X71666666Y-43444333D01*
X71666666Y-43444333D02*
X71666666Y-43211000D01*
X71666666Y-43211000D02*
X71633333Y-43077666D01*
X71633333Y-43077666D02*
X71566666Y-43011000D01*
X71566666Y-43011000D02*
X71500000Y-42977666D01*
X70900000Y-43211000D02*
X70900000Y-43911000D01*
X70900000Y-43244333D02*
X70833333Y-43211000D01*
X70833333Y-43211000D02*
X70700000Y-43211000D01*
X70700000Y-43211000D02*
X70633333Y-43244333D01*
X70633333Y-43244333D02*
X70600000Y-43277666D01*
X70600000Y-43277666D02*
X70566667Y-43344333D01*
X70566667Y-43344333D02*
X70566667Y-43544333D01*
X70566667Y-43544333D02*
X70600000Y-43611000D01*
X70600000Y-43611000D02*
X70633333Y-43644333D01*
X70633333Y-43644333D02*
X70700000Y-43677666D01*
X70700000Y-43677666D02*
X70833333Y-43677666D01*
X70833333Y-43677666D02*
X70900000Y-43644333D01*
X75700000Y-33069666D02*
X76033333Y-33069666D01*
X76033333Y-33069666D02*
X76066666Y-33403000D01*
X76066666Y-33403000D02*
X76033333Y-33369666D01*
X76033333Y-33369666D02*
X75966666Y-33336333D01*
X75966666Y-33336333D02*
X75800000Y-33336333D01*
X75800000Y-33336333D02*
X75733333Y-33369666D01*
X75733333Y-33369666D02*
X75700000Y-33403000D01*
X75700000Y-33403000D02*
X75666666Y-33469666D01*
X75666666Y-33469666D02*
X75666666Y-33636333D01*
X75666666Y-33636333D02*
X75700000Y-33703000D01*
X75700000Y-33703000D02*
X75733333Y-33736333D01*
X75733333Y-33736333D02*
X75800000Y-33769666D01*
X75800000Y-33769666D02*
X75966666Y-33769666D01*
X75966666Y-33769666D02*
X76033333Y-33736333D01*
X76033333Y-33736333D02*
X76066666Y-33703000D01*
X75466666Y-33069666D02*
X75233333Y-33769666D01*
X75233333Y-33769666D02*
X74999999Y-33069666D01*
X75633333Y-34903666D02*
X75866666Y-34570333D01*
X76033333Y-34903666D02*
X76033333Y-34203666D01*
X76033333Y-34203666D02*
X75766666Y-34203666D01*
X75766666Y-34203666D02*
X75700000Y-34237000D01*
X75700000Y-34237000D02*
X75666666Y-34270333D01*
X75666666Y-34270333D02*
X75633333Y-34337000D01*
X75633333Y-34337000D02*
X75633333Y-34437000D01*
X75633333Y-34437000D02*
X75666666Y-34503666D01*
X75666666Y-34503666D02*
X75700000Y-34537000D01*
X75700000Y-34537000D02*
X75766666Y-34570333D01*
X75766666Y-34570333D02*
X76033333Y-34570333D01*
X74966666Y-34903666D02*
X75366666Y-34903666D01*
X75166666Y-34903666D02*
X75166666Y-34203666D01*
X75166666Y-34203666D02*
X75233333Y-34303666D01*
X75233333Y-34303666D02*
X75300000Y-34370333D01*
X75300000Y-34370333D02*
X75366666Y-34403666D01*
X74666666Y-34537000D02*
X74133333Y-34537000D01*
X74133333Y-34737000D02*
X74666666Y-34737000D01*
X73833332Y-34270333D02*
X73799999Y-34237000D01*
X73799999Y-34237000D02*
X73733332Y-34203666D01*
X73733332Y-34203666D02*
X73566666Y-34203666D01*
X73566666Y-34203666D02*
X73499999Y-34237000D01*
X73499999Y-34237000D02*
X73466666Y-34270333D01*
X73466666Y-34270333D02*
X73433332Y-34337000D01*
X73433332Y-34337000D02*
X73433332Y-34403666D01*
X73433332Y-34403666D02*
X73466666Y-34503666D01*
X73466666Y-34503666D02*
X73866666Y-34903666D01*
X73866666Y-34903666D02*
X73433332Y-34903666D01*
X73133332Y-34903666D02*
X73133332Y-34203666D01*
X72733332Y-34903666D02*
X73033332Y-34503666D01*
X72733332Y-34203666D02*
X73133332Y-34603666D01*
X75633333Y-36037666D02*
X75866666Y-35704333D01*
X76033333Y-36037666D02*
X76033333Y-35337666D01*
X76033333Y-35337666D02*
X75766666Y-35337666D01*
X75766666Y-35337666D02*
X75700000Y-35371000D01*
X75700000Y-35371000D02*
X75666666Y-35404333D01*
X75666666Y-35404333D02*
X75633333Y-35471000D01*
X75633333Y-35471000D02*
X75633333Y-35571000D01*
X75633333Y-35571000D02*
X75666666Y-35637666D01*
X75666666Y-35637666D02*
X75700000Y-35671000D01*
X75700000Y-35671000D02*
X75766666Y-35704333D01*
X75766666Y-35704333D02*
X76033333Y-35704333D01*
X75366666Y-35404333D02*
X75333333Y-35371000D01*
X75333333Y-35371000D02*
X75266666Y-35337666D01*
X75266666Y-35337666D02*
X75100000Y-35337666D01*
X75100000Y-35337666D02*
X75033333Y-35371000D01*
X75033333Y-35371000D02*
X75000000Y-35404333D01*
X75000000Y-35404333D02*
X74966666Y-35471000D01*
X74966666Y-35471000D02*
X74966666Y-35537666D01*
X74966666Y-35537666D02*
X75000000Y-35637666D01*
X75000000Y-35637666D02*
X75400000Y-36037666D01*
X75400000Y-36037666D02*
X74966666Y-36037666D01*
X74666666Y-35671000D02*
X74133333Y-35671000D01*
X74133333Y-35871000D02*
X74666666Y-35871000D01*
X73433332Y-36037666D02*
X73833332Y-36037666D01*
X73633332Y-36037666D02*
X73633332Y-35337666D01*
X73633332Y-35337666D02*
X73699999Y-35437666D01*
X73699999Y-35437666D02*
X73766666Y-35504333D01*
X73766666Y-35504333D02*
X73833332Y-35537666D01*
X73133332Y-36037666D02*
X73133332Y-35337666D01*
X72733332Y-36037666D02*
X73033332Y-35637666D01*
X72733332Y-35337666D02*
X73133332Y-35737666D01*
D10*
X73540952Y-32217666D02*
X73540952Y-31517666D01*
X73540952Y-31517666D02*
X73350476Y-31517666D01*
X73350476Y-31517666D02*
X73302857Y-31551000D01*
X73302857Y-31551000D02*
X73279047Y-31584333D01*
X73279047Y-31584333D02*
X73255238Y-31651000D01*
X73255238Y-31651000D02*
X73255238Y-31751000D01*
X73255238Y-31751000D02*
X73279047Y-31817666D01*
X73279047Y-31817666D02*
X73302857Y-31851000D01*
X73302857Y-31851000D02*
X73350476Y-31884333D01*
X73350476Y-31884333D02*
X73540952Y-31884333D01*
X73064761Y-32184333D02*
X72993333Y-32217666D01*
X72993333Y-32217666D02*
X72874285Y-32217666D01*
X72874285Y-32217666D02*
X72826666Y-32184333D01*
X72826666Y-32184333D02*
X72802857Y-32151000D01*
X72802857Y-32151000D02*
X72779047Y-32084333D01*
X72779047Y-32084333D02*
X72779047Y-32017666D01*
X72779047Y-32017666D02*
X72802857Y-31951000D01*
X72802857Y-31951000D02*
X72826666Y-31917666D01*
X72826666Y-31917666D02*
X72874285Y-31884333D01*
X72874285Y-31884333D02*
X72969523Y-31851000D01*
X72969523Y-31851000D02*
X73017142Y-31817666D01*
X73017142Y-31817666D02*
X73040952Y-31784333D01*
X73040952Y-31784333D02*
X73064761Y-31717666D01*
X73064761Y-31717666D02*
X73064761Y-31651000D01*
X73064761Y-31651000D02*
X73040952Y-31584333D01*
X73040952Y-31584333D02*
X73017142Y-31551000D01*
X73017142Y-31551000D02*
X72969523Y-31517666D01*
X72969523Y-31517666D02*
X72850476Y-31517666D01*
X72850476Y-31517666D02*
X72779047Y-31551000D01*
X72564762Y-32217666D02*
X72564762Y-31517666D01*
X72564762Y-31517666D02*
X72374286Y-31517666D01*
X72374286Y-31517666D02*
X72326667Y-31551000D01*
X72326667Y-31551000D02*
X72302857Y-31584333D01*
X72302857Y-31584333D02*
X72279048Y-31651000D01*
X72279048Y-31651000D02*
X72279048Y-31751000D01*
X72279048Y-31751000D02*
X72302857Y-31817666D01*
X72302857Y-31817666D02*
X72326667Y-31851000D01*
X72326667Y-31851000D02*
X72374286Y-31884333D01*
X72374286Y-31884333D02*
X72564762Y-31884333D01*
X71502857Y-31551000D02*
X71550476Y-31517666D01*
X71550476Y-31517666D02*
X71621905Y-31517666D01*
X71621905Y-31517666D02*
X71693333Y-31551000D01*
X71693333Y-31551000D02*
X71740952Y-31617666D01*
X71740952Y-31617666D02*
X71764762Y-31684333D01*
X71764762Y-31684333D02*
X71788571Y-31817666D01*
X71788571Y-31817666D02*
X71788571Y-31917666D01*
X71788571Y-31917666D02*
X71764762Y-32051000D01*
X71764762Y-32051000D02*
X71740952Y-32117666D01*
X71740952Y-32117666D02*
X71693333Y-32184333D01*
X71693333Y-32184333D02*
X71621905Y-32217666D01*
X71621905Y-32217666D02*
X71574286Y-32217666D01*
X71574286Y-32217666D02*
X71502857Y-32184333D01*
X71502857Y-32184333D02*
X71479048Y-32151000D01*
X71479048Y-32151000D02*
X71479048Y-31917666D01*
X71479048Y-31917666D02*
X71574286Y-31917666D01*
X71169524Y-31517666D02*
X71074286Y-31517666D01*
X71074286Y-31517666D02*
X71026667Y-31551000D01*
X71026667Y-31551000D02*
X70979048Y-31617666D01*
X70979048Y-31617666D02*
X70955238Y-31751000D01*
X70955238Y-31751000D02*
X70955238Y-31984333D01*
X70955238Y-31984333D02*
X70979048Y-32117666D01*
X70979048Y-32117666D02*
X71026667Y-32184333D01*
X71026667Y-32184333D02*
X71074286Y-32217666D01*
X71074286Y-32217666D02*
X71169524Y-32217666D01*
X71169524Y-32217666D02*
X71217143Y-32184333D01*
X71217143Y-32184333D02*
X71264762Y-32117666D01*
X71264762Y-32117666D02*
X71288571Y-31984333D01*
X71288571Y-31984333D02*
X71288571Y-31751000D01*
X71288571Y-31751000D02*
X71264762Y-31617666D01*
X71264762Y-31617666D02*
X71217143Y-31551000D01*
X71217143Y-31551000D02*
X71169524Y-31517666D01*
X70298095Y-31517666D02*
X70298095Y-32017666D01*
X70298095Y-32017666D02*
X70321904Y-32117666D01*
X70321904Y-32117666D02*
X70369523Y-32184333D01*
X70369523Y-32184333D02*
X70440952Y-32217666D01*
X70440952Y-32217666D02*
X70488571Y-32217666D01*
X70060000Y-32217666D02*
X70060000Y-31517666D01*
X69560000Y-31551000D02*
X69607619Y-31517666D01*
X69607619Y-31517666D02*
X69679048Y-31517666D01*
X69679048Y-31517666D02*
X69750476Y-31551000D01*
X69750476Y-31551000D02*
X69798095Y-31617666D01*
X69798095Y-31617666D02*
X69821905Y-31684333D01*
X69821905Y-31684333D02*
X69845714Y-31817666D01*
X69845714Y-31817666D02*
X69845714Y-31917666D01*
X69845714Y-31917666D02*
X69821905Y-32051000D01*
X69821905Y-32051000D02*
X69798095Y-32117666D01*
X69798095Y-32117666D02*
X69750476Y-32184333D01*
X69750476Y-32184333D02*
X69679048Y-32217666D01*
X69679048Y-32217666D02*
X69631429Y-32217666D01*
X69631429Y-32217666D02*
X69560000Y-32184333D01*
X69560000Y-32184333D02*
X69536191Y-32151000D01*
X69536191Y-32151000D02*
X69536191Y-31917666D01*
X69536191Y-31917666D02*
X69631429Y-31917666D01*
X68926667Y-31517666D02*
X68879048Y-31517666D01*
X68879048Y-31517666D02*
X68831429Y-31551000D01*
X68831429Y-31551000D02*
X68807619Y-31584333D01*
X68807619Y-31584333D02*
X68783810Y-31651000D01*
X68783810Y-31651000D02*
X68760000Y-31784333D01*
X68760000Y-31784333D02*
X68760000Y-31951000D01*
X68760000Y-31951000D02*
X68783810Y-32084333D01*
X68783810Y-32084333D02*
X68807619Y-32151000D01*
X68807619Y-32151000D02*
X68831429Y-32184333D01*
X68831429Y-32184333D02*
X68879048Y-32217666D01*
X68879048Y-32217666D02*
X68926667Y-32217666D01*
X68926667Y-32217666D02*
X68974286Y-32184333D01*
X68974286Y-32184333D02*
X68998095Y-32151000D01*
X68998095Y-32151000D02*
X69021905Y-32084333D01*
X69021905Y-32084333D02*
X69045714Y-31951000D01*
X69045714Y-31951000D02*
X69045714Y-31784333D01*
X69045714Y-31784333D02*
X69021905Y-31651000D01*
X69021905Y-31651000D02*
X68998095Y-31584333D01*
X68998095Y-31584333D02*
X68974286Y-31551000D01*
X68974286Y-31551000D02*
X68926667Y-31517666D01*
X68474286Y-31817666D02*
X68521905Y-31784333D01*
X68521905Y-31784333D02*
X68545715Y-31751000D01*
X68545715Y-31751000D02*
X68569524Y-31684333D01*
X68569524Y-31684333D02*
X68569524Y-31651000D01*
X68569524Y-31651000D02*
X68545715Y-31584333D01*
X68545715Y-31584333D02*
X68521905Y-31551000D01*
X68521905Y-31551000D02*
X68474286Y-31517666D01*
X68474286Y-31517666D02*
X68379048Y-31517666D01*
X68379048Y-31517666D02*
X68331429Y-31551000D01*
X68331429Y-31551000D02*
X68307620Y-31584333D01*
X68307620Y-31584333D02*
X68283810Y-31651000D01*
X68283810Y-31651000D02*
X68283810Y-31684333D01*
X68283810Y-31684333D02*
X68307620Y-31751000D01*
X68307620Y-31751000D02*
X68331429Y-31784333D01*
X68331429Y-31784333D02*
X68379048Y-31817666D01*
X68379048Y-31817666D02*
X68474286Y-31817666D01*
X68474286Y-31817666D02*
X68521905Y-31851000D01*
X68521905Y-31851000D02*
X68545715Y-31884333D01*
X68545715Y-31884333D02*
X68569524Y-31951000D01*
X68569524Y-31951000D02*
X68569524Y-32084333D01*
X68569524Y-32084333D02*
X68545715Y-32151000D01*
X68545715Y-32151000D02*
X68521905Y-32184333D01*
X68521905Y-32184333D02*
X68474286Y-32217666D01*
X68474286Y-32217666D02*
X68379048Y-32217666D01*
X68379048Y-32217666D02*
X68331429Y-32184333D01*
X68331429Y-32184333D02*
X68307620Y-32151000D01*
X68307620Y-32151000D02*
X68283810Y-32084333D01*
X68283810Y-32084333D02*
X68283810Y-31951000D01*
X68283810Y-31951000D02*
X68307620Y-31884333D01*
X68307620Y-31884333D02*
X68331429Y-31851000D01*
X68331429Y-31851000D02*
X68379048Y-31817666D01*
X67974287Y-31517666D02*
X67926668Y-31517666D01*
X67926668Y-31517666D02*
X67879049Y-31551000D01*
X67879049Y-31551000D02*
X67855239Y-31584333D01*
X67855239Y-31584333D02*
X67831430Y-31651000D01*
X67831430Y-31651000D02*
X67807620Y-31784333D01*
X67807620Y-31784333D02*
X67807620Y-31951000D01*
X67807620Y-31951000D02*
X67831430Y-32084333D01*
X67831430Y-32084333D02*
X67855239Y-32151000D01*
X67855239Y-32151000D02*
X67879049Y-32184333D01*
X67879049Y-32184333D02*
X67926668Y-32217666D01*
X67926668Y-32217666D02*
X67974287Y-32217666D01*
X67974287Y-32217666D02*
X68021906Y-32184333D01*
X68021906Y-32184333D02*
X68045715Y-32151000D01*
X68045715Y-32151000D02*
X68069525Y-32084333D01*
X68069525Y-32084333D02*
X68093334Y-31951000D01*
X68093334Y-31951000D02*
X68093334Y-31784333D01*
X68093334Y-31784333D02*
X68069525Y-31651000D01*
X68069525Y-31651000D02*
X68045715Y-31584333D01*
X68045715Y-31584333D02*
X68021906Y-31551000D01*
X68021906Y-31551000D02*
X67974287Y-31517666D01*
X67355240Y-31517666D02*
X67593335Y-31517666D01*
X67593335Y-31517666D02*
X67617144Y-31851000D01*
X67617144Y-31851000D02*
X67593335Y-31817666D01*
X67593335Y-31817666D02*
X67545716Y-31784333D01*
X67545716Y-31784333D02*
X67426668Y-31784333D01*
X67426668Y-31784333D02*
X67379049Y-31817666D01*
X67379049Y-31817666D02*
X67355240Y-31851000D01*
X67355240Y-31851000D02*
X67331430Y-31917666D01*
X67331430Y-31917666D02*
X67331430Y-32084333D01*
X67331430Y-32084333D02*
X67355240Y-32151000D01*
X67355240Y-32151000D02*
X67379049Y-32184333D01*
X67379049Y-32184333D02*
X67426668Y-32217666D01*
X67426668Y-32217666D02*
X67545716Y-32217666D01*
X67545716Y-32217666D02*
X67593335Y-32184333D01*
X67593335Y-32184333D02*
X67617144Y-32151000D01*
X66531431Y-32217666D02*
X66698097Y-31884333D01*
X66817145Y-32217666D02*
X66817145Y-31517666D01*
X66817145Y-31517666D02*
X66626669Y-31517666D01*
X66626669Y-31517666D02*
X66579050Y-31551000D01*
X66579050Y-31551000D02*
X66555240Y-31584333D01*
X66555240Y-31584333D02*
X66531431Y-31651000D01*
X66531431Y-31651000D02*
X66531431Y-31751000D01*
X66531431Y-31751000D02*
X66555240Y-31817666D01*
X66555240Y-31817666D02*
X66579050Y-31851000D01*
X66579050Y-31851000D02*
X66626669Y-31884333D01*
X66626669Y-31884333D02*
X66817145Y-31884333D01*
X66126669Y-32184333D02*
X66174288Y-32217666D01*
X66174288Y-32217666D02*
X66269526Y-32217666D01*
X66269526Y-32217666D02*
X66317145Y-32184333D01*
X66317145Y-32184333D02*
X66340954Y-32117666D01*
X66340954Y-32117666D02*
X66340954Y-31851000D01*
X66340954Y-31851000D02*
X66317145Y-31784333D01*
X66317145Y-31784333D02*
X66269526Y-31751000D01*
X66269526Y-31751000D02*
X66174288Y-31751000D01*
X66174288Y-31751000D02*
X66126669Y-31784333D01*
X66126669Y-31784333D02*
X66102859Y-31851000D01*
X66102859Y-31851000D02*
X66102859Y-31917666D01*
X66102859Y-31917666D02*
X66340954Y-31984333D01*
X65936193Y-31751000D02*
X65817145Y-32217666D01*
X65817145Y-32217666D02*
X65698098Y-31751000D01*
X64945717Y-32217666D02*
X65231431Y-32217666D01*
X65088574Y-32217666D02*
X65088574Y-31517666D01*
X65088574Y-31517666D02*
X65136193Y-31617666D01*
X65136193Y-31617666D02*
X65183812Y-31684333D01*
X65183812Y-31684333D02*
X65231431Y-31717666D01*
X64731432Y-32151000D02*
X64707622Y-32184333D01*
X64707622Y-32184333D02*
X64731432Y-32217666D01*
X64731432Y-32217666D02*
X64755241Y-32184333D01*
X64755241Y-32184333D02*
X64731432Y-32151000D01*
X64731432Y-32151000D02*
X64731432Y-32217666D01*
X64231432Y-32217666D02*
X64517146Y-32217666D01*
X64374289Y-32217666D02*
X64374289Y-31517666D01*
X64374289Y-31517666D02*
X64421908Y-31617666D01*
X64421908Y-31617666D02*
X64469527Y-31684333D01*
X64469527Y-31684333D02*
X64517146Y-31717666D01*
X63717147Y-32217666D02*
X63717147Y-31517666D01*
X63717147Y-31784333D02*
X63669528Y-31751000D01*
X63669528Y-31751000D02*
X63574290Y-31751000D01*
X63574290Y-31751000D02*
X63526671Y-31784333D01*
X63526671Y-31784333D02*
X63502861Y-31817666D01*
X63502861Y-31817666D02*
X63479052Y-31884333D01*
X63479052Y-31884333D02*
X63479052Y-32084333D01*
X63479052Y-32084333D02*
X63502861Y-32151000D01*
X63502861Y-32151000D02*
X63526671Y-32184333D01*
X63526671Y-32184333D02*
X63574290Y-32217666D01*
X63574290Y-32217666D02*
X63669528Y-32217666D01*
X63669528Y-32217666D02*
X63717147Y-32184333D01*
X63312385Y-31751000D02*
X63193337Y-32217666D01*
X63074290Y-31751000D02*
X63193337Y-32217666D01*
X63193337Y-32217666D02*
X63240956Y-32384333D01*
X63240956Y-32384333D02*
X63264766Y-32417666D01*
X63264766Y-32417666D02*
X63312385Y-32451000D01*
X62583814Y-32217666D02*
X62583814Y-31517666D01*
X62583814Y-31517666D02*
X62417147Y-32017666D01*
X62417147Y-32017666D02*
X62250481Y-31517666D01*
X62250481Y-31517666D02*
X62250481Y-32217666D01*
X61798099Y-32217666D02*
X61798099Y-31851000D01*
X61798099Y-31851000D02*
X61821909Y-31784333D01*
X61821909Y-31784333D02*
X61869528Y-31751000D01*
X61869528Y-31751000D02*
X61964766Y-31751000D01*
X61964766Y-31751000D02*
X62012385Y-31784333D01*
X61798099Y-32184333D02*
X61845718Y-32217666D01*
X61845718Y-32217666D02*
X61964766Y-32217666D01*
X61964766Y-32217666D02*
X62012385Y-32184333D01*
X62012385Y-32184333D02*
X62036194Y-32117666D01*
X62036194Y-32117666D02*
X62036194Y-32051000D01*
X62036194Y-32051000D02*
X62012385Y-31984333D01*
X62012385Y-31984333D02*
X61964766Y-31951000D01*
X61964766Y-31951000D02*
X61845718Y-31951000D01*
X61845718Y-31951000D02*
X61798099Y-31917666D01*
X61631432Y-31751000D02*
X61440956Y-31751000D01*
X61560004Y-31517666D02*
X61560004Y-32117666D01*
X61560004Y-32117666D02*
X61536194Y-32184333D01*
X61536194Y-32184333D02*
X61488575Y-32217666D01*
X61488575Y-32217666D02*
X61440956Y-32217666D01*
X61274290Y-32217666D02*
X61274290Y-31517666D01*
X61060004Y-32217666D02*
X61060004Y-31851000D01*
X61060004Y-31851000D02*
X61083814Y-31784333D01*
X61083814Y-31784333D02*
X61131433Y-31751000D01*
X61131433Y-31751000D02*
X61202861Y-31751000D01*
X61202861Y-31751000D02*
X61250480Y-31784333D01*
X61250480Y-31784333D02*
X61274290Y-31817666D01*
X60821909Y-32217666D02*
X60821909Y-31751000D01*
X60821909Y-31517666D02*
X60845718Y-31551000D01*
X60845718Y-31551000D02*
X60821909Y-31584333D01*
X60821909Y-31584333D02*
X60798099Y-31551000D01*
X60798099Y-31551000D02*
X60821909Y-31517666D01*
X60821909Y-31517666D02*
X60821909Y-31584333D01*
X60393338Y-32184333D02*
X60440957Y-32217666D01*
X60440957Y-32217666D02*
X60536195Y-32217666D01*
X60536195Y-32217666D02*
X60583814Y-32184333D01*
X60583814Y-32184333D02*
X60607623Y-32117666D01*
X60607623Y-32117666D02*
X60607623Y-31851000D01*
X60607623Y-31851000D02*
X60583814Y-31784333D01*
X60583814Y-31784333D02*
X60536195Y-31751000D01*
X60536195Y-31751000D02*
X60440957Y-31751000D01*
X60440957Y-31751000D02*
X60393338Y-31784333D01*
X60393338Y-31784333D02*
X60369528Y-31851000D01*
X60369528Y-31851000D02*
X60369528Y-31917666D01*
X60369528Y-31917666D02*
X60607623Y-31984333D01*
X59940957Y-31751000D02*
X59940957Y-32217666D01*
X60155243Y-31751000D02*
X60155243Y-32117666D01*
X60155243Y-32117666D02*
X60131433Y-32184333D01*
X60131433Y-32184333D02*
X60083814Y-32217666D01*
X60083814Y-32217666D02*
X60012386Y-32217666D01*
X60012386Y-32217666D02*
X59964767Y-32184333D01*
X59964767Y-32184333D02*
X59940957Y-32151000D01*
X59631433Y-32217666D02*
X59679052Y-32184333D01*
X59679052Y-32184333D02*
X59702862Y-32117666D01*
X59702862Y-32117666D02*
X59702862Y-31517666D01*
X59440957Y-32217666D02*
X59440957Y-31517666D01*
X59226671Y-32217666D02*
X59226671Y-31851000D01*
X59226671Y-31851000D02*
X59250481Y-31784333D01*
X59250481Y-31784333D02*
X59298100Y-31751000D01*
X59298100Y-31751000D02*
X59369528Y-31751000D01*
X59369528Y-31751000D02*
X59417147Y-31784333D01*
X59417147Y-31784333D02*
X59440957Y-31817666D01*
D11*
X76100000Y-36889666D02*
X75666666Y-36889666D01*
X75666666Y-36889666D02*
X75900000Y-37156333D01*
X75900000Y-37156333D02*
X75800000Y-37156333D01*
X75800000Y-37156333D02*
X75733333Y-37189666D01*
X75733333Y-37189666D02*
X75700000Y-37223000D01*
X75700000Y-37223000D02*
X75666666Y-37289666D01*
X75666666Y-37289666D02*
X75666666Y-37456333D01*
X75666666Y-37456333D02*
X75700000Y-37523000D01*
X75700000Y-37523000D02*
X75733333Y-37556333D01*
X75733333Y-37556333D02*
X75800000Y-37589666D01*
X75800000Y-37589666D02*
X76000000Y-37589666D01*
X76000000Y-37589666D02*
X76066666Y-37556333D01*
X76066666Y-37556333D02*
X76100000Y-37523000D01*
X75366666Y-37523000D02*
X75333333Y-37556333D01*
X75333333Y-37556333D02*
X75366666Y-37589666D01*
X75366666Y-37589666D02*
X75399999Y-37556333D01*
X75399999Y-37556333D02*
X75366666Y-37523000D01*
X75366666Y-37523000D02*
X75366666Y-37589666D01*
X75100000Y-36889666D02*
X74666666Y-36889666D01*
X74666666Y-36889666D02*
X74900000Y-37156333D01*
X74900000Y-37156333D02*
X74800000Y-37156333D01*
X74800000Y-37156333D02*
X74733333Y-37189666D01*
X74733333Y-37189666D02*
X74700000Y-37223000D01*
X74700000Y-37223000D02*
X74666666Y-37289666D01*
X74666666Y-37289666D02*
X74666666Y-37456333D01*
X74666666Y-37456333D02*
X74700000Y-37523000D01*
X74700000Y-37523000D02*
X74733333Y-37556333D01*
X74733333Y-37556333D02*
X74800000Y-37589666D01*
X74800000Y-37589666D02*
X75000000Y-37589666D01*
X75000000Y-37589666D02*
X75066666Y-37556333D01*
X75066666Y-37556333D02*
X75100000Y-37523000D01*
X74466666Y-36889666D02*
X74233333Y-37589666D01*
X74233333Y-37589666D02*
X73999999Y-36889666D01*
X75633333Y-38723666D02*
X75866666Y-38390333D01*
X76033333Y-38723666D02*
X76033333Y-38023666D01*
X76033333Y-38023666D02*
X75766666Y-38023666D01*
X75766666Y-38023666D02*
X75700000Y-38057000D01*
X75700000Y-38057000D02*
X75666666Y-38090333D01*
X75666666Y-38090333D02*
X75633333Y-38157000D01*
X75633333Y-38157000D02*
X75633333Y-38257000D01*
X75633333Y-38257000D02*
X75666666Y-38323666D01*
X75666666Y-38323666D02*
X75700000Y-38357000D01*
X75700000Y-38357000D02*
X75766666Y-38390333D01*
X75766666Y-38390333D02*
X76033333Y-38390333D01*
X74966666Y-38723666D02*
X75366666Y-38723666D01*
X75166666Y-38723666D02*
X75166666Y-38023666D01*
X75166666Y-38023666D02*
X75233333Y-38123666D01*
X75233333Y-38123666D02*
X75300000Y-38190333D01*
X75300000Y-38190333D02*
X75366666Y-38223666D01*
X74666666Y-38357000D02*
X74133333Y-38357000D01*
X74133333Y-38557000D02*
X74666666Y-38557000D01*
X73433332Y-38723666D02*
X73833332Y-38723666D01*
X73633332Y-38723666D02*
X73633332Y-38023666D01*
X73633332Y-38023666D02*
X73699999Y-38123666D01*
X73699999Y-38123666D02*
X73766666Y-38190333D01*
X73766666Y-38190333D02*
X73833332Y-38223666D01*
X73133332Y-38723666D02*
X73133332Y-38023666D01*
X72733332Y-38723666D02*
X73033332Y-38323666D01*
X72733332Y-38023666D02*
X73133332Y-38423666D01*
X75633333Y-39857666D02*
X75866666Y-39524333D01*
X76033333Y-39857666D02*
X76033333Y-39157666D01*
X76033333Y-39157666D02*
X75766666Y-39157666D01*
X75766666Y-39157666D02*
X75700000Y-39191000D01*
X75700000Y-39191000D02*
X75666666Y-39224333D01*
X75666666Y-39224333D02*
X75633333Y-39291000D01*
X75633333Y-39291000D02*
X75633333Y-39391000D01*
X75633333Y-39391000D02*
X75666666Y-39457666D01*
X75666666Y-39457666D02*
X75700000Y-39491000D01*
X75700000Y-39491000D02*
X75766666Y-39524333D01*
X75766666Y-39524333D02*
X76033333Y-39524333D01*
X75366666Y-39224333D02*
X75333333Y-39191000D01*
X75333333Y-39191000D02*
X75266666Y-39157666D01*
X75266666Y-39157666D02*
X75100000Y-39157666D01*
X75100000Y-39157666D02*
X75033333Y-39191000D01*
X75033333Y-39191000D02*
X75000000Y-39224333D01*
X75000000Y-39224333D02*
X74966666Y-39291000D01*
X74966666Y-39291000D02*
X74966666Y-39357666D01*
X74966666Y-39357666D02*
X75000000Y-39457666D01*
X75000000Y-39457666D02*
X75400000Y-39857666D01*
X75400000Y-39857666D02*
X74966666Y-39857666D01*
X74666666Y-39491000D02*
X74133333Y-39491000D01*
X74133333Y-39691000D02*
X74666666Y-39691000D01*
X73433332Y-39857666D02*
X73833332Y-39857666D01*
X73633332Y-39857666D02*
X73633332Y-39157666D01*
X73633332Y-39157666D02*
X73699999Y-39257666D01*
X73699999Y-39257666D02*
X73766666Y-39324333D01*
X73766666Y-39324333D02*
X73833332Y-39357666D01*
X73133332Y-39857666D02*
X73133332Y-39157666D01*
X72733332Y-39857666D02*
X73033332Y-39457666D01*
X72733332Y-39157666D02*
X73133332Y-39557666D01*
M02*
