%TF.GenerationSoftware,KiCad,Pcbnew,(7.0.0)*%
%TF.CreationDate,2023-08-25T13:08:02+02:00*%
%TF.ProjectId,JIG_THT,4a49475f-5448-4542-9e6b-696361645f70,rev?*%
%TF.SameCoordinates,Original*%
%TF.FileFunction,Legend,Top*%
%TF.FilePolarity,Positive*%
%FSLAX46Y46*%
G04 Gerber Fmt 4.6, Leading zero omitted, Abs format (unit mm)*
G04 Created by KiCad (PCBNEW (7.0.0)) date 2023-08-25 13:08:02*
%MOMM*%
%LPD*%
G01*
G04 APERTURE LIST*
%ADD10C,0.200000*%
%ADD11C,0.150000*%
%ADD12C,0.100000*%
%ADD13C,0.400000*%
%ADD14C,0.300000*%
%ADD15C,0.120000*%
G04 APERTURE END LIST*
D10*
X42000000Y-60960000D02*
X57240000Y-60960000D01*
X57240000Y-60960000D02*
X57240000Y-73660000D01*
X57240000Y-73660000D02*
X42000000Y-73660000D01*
X42000000Y-73660000D02*
X42000000Y-60960000D01*
X42000000Y-86360000D02*
X64860000Y-86360000D01*
X64860000Y-86360000D02*
X64860000Y-99060000D01*
X64860000Y-99060000D02*
X42000000Y-99060000D01*
X42000000Y-99060000D02*
X42000000Y-86360000D01*
X42000000Y-73660000D02*
X57240000Y-73660000D01*
X57240000Y-73660000D02*
X57240000Y-86360000D01*
X57240000Y-86360000D02*
X42000000Y-86360000D01*
X42000000Y-86360000D02*
X42000000Y-73660000D01*
X78090000Y-80000000D02*
X84470000Y-80000000D01*
X84470000Y-80000000D02*
X84470000Y-93900000D01*
X84470000Y-93900000D02*
X78090000Y-93900000D01*
X78090000Y-93900000D02*
X78090000Y-80000000D01*
X74982380Y-91785714D02*
X74982380Y-92261904D01*
X74982380Y-92261904D02*
X75458571Y-92309523D01*
X75458571Y-92309523D02*
X75410952Y-92261904D01*
X75410952Y-92261904D02*
X75363333Y-92166666D01*
X75363333Y-92166666D02*
X75363333Y-91928571D01*
X75363333Y-91928571D02*
X75410952Y-91833333D01*
X75410952Y-91833333D02*
X75458571Y-91785714D01*
X75458571Y-91785714D02*
X75553809Y-91738095D01*
X75553809Y-91738095D02*
X75791904Y-91738095D01*
X75791904Y-91738095D02*
X75887142Y-91785714D01*
X75887142Y-91785714D02*
X75934761Y-91833333D01*
X75934761Y-91833333D02*
X75982380Y-91928571D01*
X75982380Y-91928571D02*
X75982380Y-92166666D01*
X75982380Y-92166666D02*
X75934761Y-92261904D01*
X75934761Y-92261904D02*
X75887142Y-92309523D01*
X74982380Y-91452380D02*
X75982380Y-91119047D01*
X75982380Y-91119047D02*
X74982380Y-90785714D01*
X74982380Y-89661904D02*
X74982380Y-89471428D01*
X74982380Y-89471428D02*
X75030000Y-89376190D01*
X75030000Y-89376190D02*
X75125238Y-89280952D01*
X75125238Y-89280952D02*
X75315714Y-89233333D01*
X75315714Y-89233333D02*
X75649047Y-89233333D01*
X75649047Y-89233333D02*
X75839523Y-89280952D01*
X75839523Y-89280952D02*
X75934761Y-89376190D01*
X75934761Y-89376190D02*
X75982380Y-89471428D01*
X75982380Y-89471428D02*
X75982380Y-89661904D01*
X75982380Y-89661904D02*
X75934761Y-89757142D01*
X75934761Y-89757142D02*
X75839523Y-89852380D01*
X75839523Y-89852380D02*
X75649047Y-89899999D01*
X75649047Y-89899999D02*
X75315714Y-89899999D01*
X75315714Y-89899999D02*
X75125238Y-89852380D01*
X75125238Y-89852380D02*
X75030000Y-89757142D01*
X75030000Y-89757142D02*
X74982380Y-89661904D01*
X75982380Y-88804761D02*
X74982380Y-88804761D01*
X74982380Y-88804761D02*
X75982380Y-88233333D01*
X75982380Y-88233333D02*
X74982380Y-88233333D01*
X75982380Y-87280952D02*
X75982380Y-87757142D01*
X75982380Y-87757142D02*
X74982380Y-87757142D01*
X75506190Y-86757142D02*
X75982380Y-86757142D01*
X74982380Y-87090475D02*
X75506190Y-86757142D01*
X75506190Y-86757142D02*
X74982380Y-86423809D01*
X76363333Y-85204761D02*
X76315714Y-85252380D01*
X76315714Y-85252380D02*
X76172857Y-85347618D01*
X76172857Y-85347618D02*
X76077619Y-85395237D01*
X76077619Y-85395237D02*
X75934761Y-85442856D01*
X75934761Y-85442856D02*
X75696666Y-85490475D01*
X75696666Y-85490475D02*
X75506190Y-85490475D01*
X75506190Y-85490475D02*
X75268095Y-85442856D01*
X75268095Y-85442856D02*
X75125238Y-85395237D01*
X75125238Y-85395237D02*
X75030000Y-85347618D01*
X75030000Y-85347618D02*
X74887142Y-85252380D01*
X74887142Y-85252380D02*
X74839523Y-85204761D01*
X74982380Y-84633332D02*
X74982380Y-84442856D01*
X74982380Y-84442856D02*
X75030000Y-84347618D01*
X75030000Y-84347618D02*
X75125238Y-84252380D01*
X75125238Y-84252380D02*
X75315714Y-84204761D01*
X75315714Y-84204761D02*
X75649047Y-84204761D01*
X75649047Y-84204761D02*
X75839523Y-84252380D01*
X75839523Y-84252380D02*
X75934761Y-84347618D01*
X75934761Y-84347618D02*
X75982380Y-84442856D01*
X75982380Y-84442856D02*
X75982380Y-84633332D01*
X75982380Y-84633332D02*
X75934761Y-84728570D01*
X75934761Y-84728570D02*
X75839523Y-84823808D01*
X75839523Y-84823808D02*
X75649047Y-84871427D01*
X75649047Y-84871427D02*
X75315714Y-84871427D01*
X75315714Y-84871427D02*
X75125238Y-84823808D01*
X75125238Y-84823808D02*
X75030000Y-84728570D01*
X75030000Y-84728570D02*
X74982380Y-84633332D01*
X75982380Y-83776189D02*
X74982380Y-83776189D01*
X74982380Y-83776189D02*
X74982380Y-83395237D01*
X74982380Y-83395237D02*
X75030000Y-83299999D01*
X75030000Y-83299999D02*
X75077619Y-83252380D01*
X75077619Y-83252380D02*
X75172857Y-83204761D01*
X75172857Y-83204761D02*
X75315714Y-83204761D01*
X75315714Y-83204761D02*
X75410952Y-83252380D01*
X75410952Y-83252380D02*
X75458571Y-83299999D01*
X75458571Y-83299999D02*
X75506190Y-83395237D01*
X75506190Y-83395237D02*
X75506190Y-83776189D01*
X74982380Y-82919046D02*
X74982380Y-82347618D01*
X75982380Y-82633332D02*
X74982380Y-82633332D01*
X75887142Y-82014284D02*
X75934761Y-81966665D01*
X75934761Y-81966665D02*
X75982380Y-82014284D01*
X75982380Y-82014284D02*
X75934761Y-82061903D01*
X75934761Y-82061903D02*
X75887142Y-82014284D01*
X75887142Y-82014284D02*
X75982380Y-82014284D01*
X76363333Y-81633332D02*
X76315714Y-81585713D01*
X76315714Y-81585713D02*
X76172857Y-81490475D01*
X76172857Y-81490475D02*
X76077619Y-81442856D01*
X76077619Y-81442856D02*
X75934761Y-81395237D01*
X75934761Y-81395237D02*
X75696666Y-81347618D01*
X75696666Y-81347618D02*
X75506190Y-81347618D01*
X75506190Y-81347618D02*
X75268095Y-81395237D01*
X75268095Y-81395237D02*
X75125238Y-81442856D01*
X75125238Y-81442856D02*
X75030000Y-81490475D01*
X75030000Y-81490475D02*
X74887142Y-81585713D01*
X74887142Y-81585713D02*
X74839523Y-81633332D01*
D11*
X78875238Y-62867380D02*
X79446666Y-62867380D01*
X79160952Y-63867380D02*
X79160952Y-62867380D01*
X79684762Y-62867380D02*
X80351428Y-63867380D01*
X80351428Y-62867380D02*
X79684762Y-63867380D01*
X81446666Y-62819761D02*
X80589524Y-64105476D01*
X81780000Y-63867380D02*
X81780000Y-62867380D01*
X81780000Y-62867380D02*
X82018095Y-62867380D01*
X82018095Y-62867380D02*
X82160952Y-62915000D01*
X82160952Y-62915000D02*
X82256190Y-63010238D01*
X82256190Y-63010238D02*
X82303809Y-63105476D01*
X82303809Y-63105476D02*
X82351428Y-63295952D01*
X82351428Y-63295952D02*
X82351428Y-63438809D01*
X82351428Y-63438809D02*
X82303809Y-63629285D01*
X82303809Y-63629285D02*
X82256190Y-63724523D01*
X82256190Y-63724523D02*
X82160952Y-63819761D01*
X82160952Y-63819761D02*
X82018095Y-63867380D01*
X82018095Y-63867380D02*
X81780000Y-63867380D01*
X82780000Y-63486428D02*
X83541905Y-63486428D01*
D12*
X43619047Y-94114761D02*
X42952380Y-93162380D01*
X42476190Y-94114761D02*
X42476190Y-92114761D01*
X42476190Y-92114761D02*
X43238095Y-92114761D01*
X43238095Y-92114761D02*
X43428571Y-92210000D01*
X43428571Y-92210000D02*
X43523809Y-92305238D01*
X43523809Y-92305238D02*
X43619047Y-92495714D01*
X43619047Y-92495714D02*
X43619047Y-92781428D01*
X43619047Y-92781428D02*
X43523809Y-92971904D01*
X43523809Y-92971904D02*
X43428571Y-93067142D01*
X43428571Y-93067142D02*
X43238095Y-93162380D01*
X43238095Y-93162380D02*
X42476190Y-93162380D01*
X45523809Y-94114761D02*
X44380952Y-94114761D01*
X44952380Y-94114761D02*
X44952380Y-92114761D01*
X44952380Y-92114761D02*
X44761904Y-92400476D01*
X44761904Y-92400476D02*
X44571428Y-92590952D01*
X44571428Y-92590952D02*
X44380952Y-92686190D01*
X47580952Y-93067142D02*
X49104762Y-93067142D01*
X49104762Y-93638571D02*
X47580952Y-93638571D01*
X51638094Y-92114761D02*
X51828571Y-92114761D01*
X51828571Y-92114761D02*
X52019047Y-92210000D01*
X52019047Y-92210000D02*
X52114285Y-92305238D01*
X52114285Y-92305238D02*
X52209523Y-92495714D01*
X52209523Y-92495714D02*
X52304761Y-92876666D01*
X52304761Y-92876666D02*
X52304761Y-93352857D01*
X52304761Y-93352857D02*
X52209523Y-93733809D01*
X52209523Y-93733809D02*
X52114285Y-93924285D01*
X52114285Y-93924285D02*
X52019047Y-94019523D01*
X52019047Y-94019523D02*
X51828571Y-94114761D01*
X51828571Y-94114761D02*
X51638094Y-94114761D01*
X51638094Y-94114761D02*
X51447618Y-94019523D01*
X51447618Y-94019523D02*
X51352380Y-93924285D01*
X51352380Y-93924285D02*
X51257142Y-93733809D01*
X51257142Y-93733809D02*
X51161904Y-93352857D01*
X51161904Y-93352857D02*
X51161904Y-92876666D01*
X51161904Y-92876666D02*
X51257142Y-92495714D01*
X51257142Y-92495714D02*
X51352380Y-92305238D01*
X51352380Y-92305238D02*
X51447618Y-92210000D01*
X51447618Y-92210000D02*
X51638094Y-92114761D01*
X54590475Y-92019523D02*
X52876190Y-94590952D01*
X55923809Y-93067142D02*
X56209523Y-93162380D01*
X56209523Y-93162380D02*
X56304761Y-93257619D01*
X56304761Y-93257619D02*
X56399999Y-93448095D01*
X56399999Y-93448095D02*
X56399999Y-93733809D01*
X56399999Y-93733809D02*
X56304761Y-93924285D01*
X56304761Y-93924285D02*
X56209523Y-94019523D01*
X56209523Y-94019523D02*
X56019047Y-94114761D01*
X56019047Y-94114761D02*
X55257142Y-94114761D01*
X55257142Y-94114761D02*
X55257142Y-92114761D01*
X55257142Y-92114761D02*
X55923809Y-92114761D01*
X55923809Y-92114761D02*
X56114285Y-92210000D01*
X56114285Y-92210000D02*
X56209523Y-92305238D01*
X56209523Y-92305238D02*
X56304761Y-92495714D01*
X56304761Y-92495714D02*
X56304761Y-92686190D01*
X56304761Y-92686190D02*
X56209523Y-92876666D01*
X56209523Y-92876666D02*
X56114285Y-92971904D01*
X56114285Y-92971904D02*
X55923809Y-93067142D01*
X55923809Y-93067142D02*
X55257142Y-93067142D01*
X57257142Y-94114761D02*
X57257142Y-92781428D01*
X57257142Y-93162380D02*
X57352380Y-92971904D01*
X57352380Y-92971904D02*
X57447618Y-92876666D01*
X57447618Y-92876666D02*
X57638094Y-92781428D01*
X57638094Y-92781428D02*
X57828571Y-92781428D01*
X58495237Y-94114761D02*
X58495237Y-92781428D01*
X58495237Y-92114761D02*
X58399999Y-92210000D01*
X58399999Y-92210000D02*
X58495237Y-92305238D01*
X58495237Y-92305238D02*
X58590475Y-92210000D01*
X58590475Y-92210000D02*
X58495237Y-92114761D01*
X58495237Y-92114761D02*
X58495237Y-92305238D01*
X60304761Y-94114761D02*
X60304761Y-92114761D01*
X60304761Y-94019523D02*
X60114285Y-94114761D01*
X60114285Y-94114761D02*
X59733332Y-94114761D01*
X59733332Y-94114761D02*
X59542856Y-94019523D01*
X59542856Y-94019523D02*
X59447618Y-93924285D01*
X59447618Y-93924285D02*
X59352380Y-93733809D01*
X59352380Y-93733809D02*
X59352380Y-93162380D01*
X59352380Y-93162380D02*
X59447618Y-92971904D01*
X59447618Y-92971904D02*
X59542856Y-92876666D01*
X59542856Y-92876666D02*
X59733332Y-92781428D01*
X59733332Y-92781428D02*
X60114285Y-92781428D01*
X60114285Y-92781428D02*
X60304761Y-92876666D01*
X62114285Y-92781428D02*
X62114285Y-94400476D01*
X62114285Y-94400476D02*
X62019047Y-94590952D01*
X62019047Y-94590952D02*
X61923809Y-94686190D01*
X61923809Y-94686190D02*
X61733332Y-94781428D01*
X61733332Y-94781428D02*
X61447618Y-94781428D01*
X61447618Y-94781428D02*
X61257142Y-94686190D01*
X62114285Y-94019523D02*
X61923809Y-94114761D01*
X61923809Y-94114761D02*
X61542856Y-94114761D01*
X61542856Y-94114761D02*
X61352380Y-94019523D01*
X61352380Y-94019523D02*
X61257142Y-93924285D01*
X61257142Y-93924285D02*
X61161904Y-93733809D01*
X61161904Y-93733809D02*
X61161904Y-93162380D01*
X61161904Y-93162380D02*
X61257142Y-92971904D01*
X61257142Y-92971904D02*
X61352380Y-92876666D01*
X61352380Y-92876666D02*
X61542856Y-92781428D01*
X61542856Y-92781428D02*
X61923809Y-92781428D01*
X61923809Y-92781428D02*
X62114285Y-92876666D01*
X63828571Y-94019523D02*
X63638095Y-94114761D01*
X63638095Y-94114761D02*
X63257142Y-94114761D01*
X63257142Y-94114761D02*
X63066666Y-94019523D01*
X63066666Y-94019523D02*
X62971428Y-93829047D01*
X62971428Y-93829047D02*
X62971428Y-93067142D01*
X62971428Y-93067142D02*
X63066666Y-92876666D01*
X63066666Y-92876666D02*
X63257142Y-92781428D01*
X63257142Y-92781428D02*
X63638095Y-92781428D01*
X63638095Y-92781428D02*
X63828571Y-92876666D01*
X63828571Y-92876666D02*
X63923809Y-93067142D01*
X63923809Y-93067142D02*
X63923809Y-93257619D01*
X63923809Y-93257619D02*
X62971428Y-93448095D01*
X43619047Y-97354761D02*
X42952380Y-96402380D01*
X42476190Y-97354761D02*
X42476190Y-95354761D01*
X42476190Y-95354761D02*
X43238095Y-95354761D01*
X43238095Y-95354761D02*
X43428571Y-95450000D01*
X43428571Y-95450000D02*
X43523809Y-95545238D01*
X43523809Y-95545238D02*
X43619047Y-95735714D01*
X43619047Y-95735714D02*
X43619047Y-96021428D01*
X43619047Y-96021428D02*
X43523809Y-96211904D01*
X43523809Y-96211904D02*
X43428571Y-96307142D01*
X43428571Y-96307142D02*
X43238095Y-96402380D01*
X43238095Y-96402380D02*
X42476190Y-96402380D01*
X44380952Y-95545238D02*
X44476190Y-95450000D01*
X44476190Y-95450000D02*
X44666666Y-95354761D01*
X44666666Y-95354761D02*
X45142857Y-95354761D01*
X45142857Y-95354761D02*
X45333333Y-95450000D01*
X45333333Y-95450000D02*
X45428571Y-95545238D01*
X45428571Y-95545238D02*
X45523809Y-95735714D01*
X45523809Y-95735714D02*
X45523809Y-95926190D01*
X45523809Y-95926190D02*
X45428571Y-96211904D01*
X45428571Y-96211904D02*
X44285714Y-97354761D01*
X44285714Y-97354761D02*
X45523809Y-97354761D01*
X47580952Y-96307142D02*
X49104762Y-96307142D01*
X49104762Y-96878571D02*
X47580952Y-96878571D01*
X51257142Y-97354761D02*
X51257142Y-95354761D01*
X51257142Y-95354761D02*
X52399999Y-97354761D01*
X52399999Y-97354761D02*
X52399999Y-95354761D01*
X54495237Y-97164285D02*
X54399999Y-97259523D01*
X54399999Y-97259523D02*
X54114285Y-97354761D01*
X54114285Y-97354761D02*
X53923809Y-97354761D01*
X53923809Y-97354761D02*
X53638094Y-97259523D01*
X53638094Y-97259523D02*
X53447618Y-97069047D01*
X53447618Y-97069047D02*
X53352380Y-96878571D01*
X53352380Y-96878571D02*
X53257142Y-96497619D01*
X53257142Y-96497619D02*
X53257142Y-96211904D01*
X53257142Y-96211904D02*
X53352380Y-95830952D01*
X53352380Y-95830952D02*
X53447618Y-95640476D01*
X53447618Y-95640476D02*
X53638094Y-95450000D01*
X53638094Y-95450000D02*
X53923809Y-95354761D01*
X53923809Y-95354761D02*
X54114285Y-95354761D01*
X54114285Y-95354761D02*
X54399999Y-95450000D01*
X54399999Y-95450000D02*
X54495237Y-95545238D01*
X56780951Y-95259523D02*
X55066666Y-97830952D01*
X57828570Y-95354761D02*
X58209523Y-95354761D01*
X58209523Y-95354761D02*
X58399999Y-95450000D01*
X58399999Y-95450000D02*
X58590475Y-95640476D01*
X58590475Y-95640476D02*
X58685713Y-96021428D01*
X58685713Y-96021428D02*
X58685713Y-96688095D01*
X58685713Y-96688095D02*
X58590475Y-97069047D01*
X58590475Y-97069047D02*
X58399999Y-97259523D01*
X58399999Y-97259523D02*
X58209523Y-97354761D01*
X58209523Y-97354761D02*
X57828570Y-97354761D01*
X57828570Y-97354761D02*
X57638094Y-97259523D01*
X57638094Y-97259523D02*
X57447618Y-97069047D01*
X57447618Y-97069047D02*
X57352380Y-96688095D01*
X57352380Y-96688095D02*
X57352380Y-96021428D01*
X57352380Y-96021428D02*
X57447618Y-95640476D01*
X57447618Y-95640476D02*
X57638094Y-95450000D01*
X57638094Y-95450000D02*
X57828570Y-95354761D01*
X59542856Y-96021428D02*
X59542856Y-98021428D01*
X59542856Y-96116666D02*
X59733332Y-96021428D01*
X59733332Y-96021428D02*
X60114285Y-96021428D01*
X60114285Y-96021428D02*
X60304761Y-96116666D01*
X60304761Y-96116666D02*
X60399999Y-96211904D01*
X60399999Y-96211904D02*
X60495237Y-96402380D01*
X60495237Y-96402380D02*
X60495237Y-96973809D01*
X60495237Y-96973809D02*
X60399999Y-97164285D01*
X60399999Y-97164285D02*
X60304761Y-97259523D01*
X60304761Y-97259523D02*
X60114285Y-97354761D01*
X60114285Y-97354761D02*
X59733332Y-97354761D01*
X59733332Y-97354761D02*
X59542856Y-97259523D01*
X62114285Y-97259523D02*
X61923809Y-97354761D01*
X61923809Y-97354761D02*
X61542856Y-97354761D01*
X61542856Y-97354761D02*
X61352380Y-97259523D01*
X61352380Y-97259523D02*
X61257142Y-97069047D01*
X61257142Y-97069047D02*
X61257142Y-96307142D01*
X61257142Y-96307142D02*
X61352380Y-96116666D01*
X61352380Y-96116666D02*
X61542856Y-96021428D01*
X61542856Y-96021428D02*
X61923809Y-96021428D01*
X61923809Y-96021428D02*
X62114285Y-96116666D01*
X62114285Y-96116666D02*
X62209523Y-96307142D01*
X62209523Y-96307142D02*
X62209523Y-96497619D01*
X62209523Y-96497619D02*
X61257142Y-96688095D01*
X63066666Y-96021428D02*
X63066666Y-97354761D01*
X63066666Y-96211904D02*
X63161904Y-96116666D01*
X63161904Y-96116666D02*
X63352380Y-96021428D01*
X63352380Y-96021428D02*
X63638095Y-96021428D01*
X63638095Y-96021428D02*
X63828571Y-96116666D01*
X63828571Y-96116666D02*
X63923809Y-96307142D01*
X63923809Y-96307142D02*
X63923809Y-97354761D01*
X43619047Y-68714761D02*
X42952380Y-67762380D01*
X42476190Y-68714761D02*
X42476190Y-66714761D01*
X42476190Y-66714761D02*
X43238095Y-66714761D01*
X43238095Y-66714761D02*
X43428571Y-66810000D01*
X43428571Y-66810000D02*
X43523809Y-66905238D01*
X43523809Y-66905238D02*
X43619047Y-67095714D01*
X43619047Y-67095714D02*
X43619047Y-67381428D01*
X43619047Y-67381428D02*
X43523809Y-67571904D01*
X43523809Y-67571904D02*
X43428571Y-67667142D01*
X43428571Y-67667142D02*
X43238095Y-67762380D01*
X43238095Y-67762380D02*
X42476190Y-67762380D01*
X45523809Y-68714761D02*
X44380952Y-68714761D01*
X44952380Y-68714761D02*
X44952380Y-66714761D01*
X44952380Y-66714761D02*
X44761904Y-67000476D01*
X44761904Y-67000476D02*
X44571428Y-67190952D01*
X44571428Y-67190952D02*
X44380952Y-67286190D01*
X47580952Y-67667142D02*
X49104762Y-67667142D01*
X49104762Y-68238571D02*
X47580952Y-68238571D01*
X51161904Y-66905238D02*
X51257142Y-66810000D01*
X51257142Y-66810000D02*
X51447618Y-66714761D01*
X51447618Y-66714761D02*
X51923809Y-66714761D01*
X51923809Y-66714761D02*
X52114285Y-66810000D01*
X52114285Y-66810000D02*
X52209523Y-66905238D01*
X52209523Y-66905238D02*
X52304761Y-67095714D01*
X52304761Y-67095714D02*
X52304761Y-67286190D01*
X52304761Y-67286190D02*
X52209523Y-67571904D01*
X52209523Y-67571904D02*
X51066666Y-68714761D01*
X51066666Y-68714761D02*
X52304761Y-68714761D01*
X53161904Y-68714761D02*
X53161904Y-66714761D01*
X54304761Y-68714761D02*
X53447618Y-67571904D01*
X54304761Y-66714761D02*
X53161904Y-67857619D01*
X43619047Y-71954761D02*
X42952380Y-71002380D01*
X42476190Y-71954761D02*
X42476190Y-69954761D01*
X42476190Y-69954761D02*
X43238095Y-69954761D01*
X43238095Y-69954761D02*
X43428571Y-70050000D01*
X43428571Y-70050000D02*
X43523809Y-70145238D01*
X43523809Y-70145238D02*
X43619047Y-70335714D01*
X43619047Y-70335714D02*
X43619047Y-70621428D01*
X43619047Y-70621428D02*
X43523809Y-70811904D01*
X43523809Y-70811904D02*
X43428571Y-70907142D01*
X43428571Y-70907142D02*
X43238095Y-71002380D01*
X43238095Y-71002380D02*
X42476190Y-71002380D01*
X44380952Y-70145238D02*
X44476190Y-70050000D01*
X44476190Y-70050000D02*
X44666666Y-69954761D01*
X44666666Y-69954761D02*
X45142857Y-69954761D01*
X45142857Y-69954761D02*
X45333333Y-70050000D01*
X45333333Y-70050000D02*
X45428571Y-70145238D01*
X45428571Y-70145238D02*
X45523809Y-70335714D01*
X45523809Y-70335714D02*
X45523809Y-70526190D01*
X45523809Y-70526190D02*
X45428571Y-70811904D01*
X45428571Y-70811904D02*
X44285714Y-71954761D01*
X44285714Y-71954761D02*
X45523809Y-71954761D01*
X47580952Y-70907142D02*
X49104762Y-70907142D01*
X49104762Y-71478571D02*
X47580952Y-71478571D01*
X52304761Y-71954761D02*
X51161904Y-71954761D01*
X51733332Y-71954761D02*
X51733332Y-69954761D01*
X51733332Y-69954761D02*
X51542856Y-70240476D01*
X51542856Y-70240476D02*
X51352380Y-70430952D01*
X51352380Y-70430952D02*
X51161904Y-70526190D01*
X53161904Y-71954761D02*
X53161904Y-69954761D01*
X54304761Y-71954761D02*
X53447618Y-70811904D01*
X54304761Y-69954761D02*
X53161904Y-71097619D01*
D13*
X43523809Y-89664761D02*
X42380952Y-89664761D01*
X42952380Y-89664761D02*
X42952380Y-87664761D01*
X42952380Y-87664761D02*
X42761904Y-87950476D01*
X42761904Y-87950476D02*
X42571428Y-88140952D01*
X42571428Y-88140952D02*
X42380952Y-88236190D01*
X44380952Y-89474285D02*
X44476190Y-89569523D01*
X44476190Y-89569523D02*
X44380952Y-89664761D01*
X44380952Y-89664761D02*
X44285714Y-89569523D01*
X44285714Y-89569523D02*
X44380952Y-89474285D01*
X44380952Y-89474285D02*
X44380952Y-89664761D01*
X45619047Y-88521904D02*
X45428571Y-88426666D01*
X45428571Y-88426666D02*
X45333333Y-88331428D01*
X45333333Y-88331428D02*
X45238095Y-88140952D01*
X45238095Y-88140952D02*
X45238095Y-88045714D01*
X45238095Y-88045714D02*
X45333333Y-87855238D01*
X45333333Y-87855238D02*
X45428571Y-87760000D01*
X45428571Y-87760000D02*
X45619047Y-87664761D01*
X45619047Y-87664761D02*
X46000000Y-87664761D01*
X46000000Y-87664761D02*
X46190476Y-87760000D01*
X46190476Y-87760000D02*
X46285714Y-87855238D01*
X46285714Y-87855238D02*
X46380952Y-88045714D01*
X46380952Y-88045714D02*
X46380952Y-88140952D01*
X46380952Y-88140952D02*
X46285714Y-88331428D01*
X46285714Y-88331428D02*
X46190476Y-88426666D01*
X46190476Y-88426666D02*
X46000000Y-88521904D01*
X46000000Y-88521904D02*
X45619047Y-88521904D01*
X45619047Y-88521904D02*
X45428571Y-88617142D01*
X45428571Y-88617142D02*
X45333333Y-88712380D01*
X45333333Y-88712380D02*
X45238095Y-88902857D01*
X45238095Y-88902857D02*
X45238095Y-89283809D01*
X45238095Y-89283809D02*
X45333333Y-89474285D01*
X45333333Y-89474285D02*
X45428571Y-89569523D01*
X45428571Y-89569523D02*
X45619047Y-89664761D01*
X45619047Y-89664761D02*
X46000000Y-89664761D01*
X46000000Y-89664761D02*
X46190476Y-89569523D01*
X46190476Y-89569523D02*
X46285714Y-89474285D01*
X46285714Y-89474285D02*
X46380952Y-89283809D01*
X46380952Y-89283809D02*
X46380952Y-88902857D01*
X46380952Y-88902857D02*
X46285714Y-88712380D01*
X46285714Y-88712380D02*
X46190476Y-88617142D01*
X46190476Y-88617142D02*
X46000000Y-88521904D01*
X46952381Y-87664761D02*
X47619047Y-89664761D01*
X47619047Y-89664761D02*
X48285714Y-87664761D01*
D11*
X79470476Y-71487380D02*
X79137143Y-71011190D01*
X78899048Y-71487380D02*
X78899048Y-70487380D01*
X78899048Y-70487380D02*
X79280000Y-70487380D01*
X79280000Y-70487380D02*
X79375238Y-70535000D01*
X79375238Y-70535000D02*
X79422857Y-70582619D01*
X79422857Y-70582619D02*
X79470476Y-70677857D01*
X79470476Y-70677857D02*
X79470476Y-70820714D01*
X79470476Y-70820714D02*
X79422857Y-70915952D01*
X79422857Y-70915952D02*
X79375238Y-70963571D01*
X79375238Y-70963571D02*
X79280000Y-71011190D01*
X79280000Y-71011190D02*
X78899048Y-71011190D01*
X79803810Y-70487380D02*
X80470476Y-71487380D01*
X80470476Y-70487380D02*
X79803810Y-71487380D01*
X81565714Y-70439761D02*
X80708572Y-71725476D01*
X81899048Y-71487380D02*
X81899048Y-70487380D01*
X81899048Y-70487380D02*
X82137143Y-70487380D01*
X82137143Y-70487380D02*
X82280000Y-70535000D01*
X82280000Y-70535000D02*
X82375238Y-70630238D01*
X82375238Y-70630238D02*
X82422857Y-70725476D01*
X82422857Y-70725476D02*
X82470476Y-70915952D01*
X82470476Y-70915952D02*
X82470476Y-71058809D01*
X82470476Y-71058809D02*
X82422857Y-71249285D01*
X82422857Y-71249285D02*
X82375238Y-71344523D01*
X82375238Y-71344523D02*
X82280000Y-71439761D01*
X82280000Y-71439761D02*
X82137143Y-71487380D01*
X82137143Y-71487380D02*
X81899048Y-71487380D01*
X82899048Y-71106428D02*
X83660953Y-71106428D01*
X83280000Y-71487380D02*
X83280000Y-70725476D01*
D12*
X43619047Y-81414761D02*
X42952380Y-80462380D01*
X42476190Y-81414761D02*
X42476190Y-79414761D01*
X42476190Y-79414761D02*
X43238095Y-79414761D01*
X43238095Y-79414761D02*
X43428571Y-79510000D01*
X43428571Y-79510000D02*
X43523809Y-79605238D01*
X43523809Y-79605238D02*
X43619047Y-79795714D01*
X43619047Y-79795714D02*
X43619047Y-80081428D01*
X43619047Y-80081428D02*
X43523809Y-80271904D01*
X43523809Y-80271904D02*
X43428571Y-80367142D01*
X43428571Y-80367142D02*
X43238095Y-80462380D01*
X43238095Y-80462380D02*
X42476190Y-80462380D01*
X45523809Y-81414761D02*
X44380952Y-81414761D01*
X44952380Y-81414761D02*
X44952380Y-79414761D01*
X44952380Y-79414761D02*
X44761904Y-79700476D01*
X44761904Y-79700476D02*
X44571428Y-79890952D01*
X44571428Y-79890952D02*
X44380952Y-79986190D01*
X47580952Y-80367142D02*
X49104762Y-80367142D01*
X49104762Y-80938571D02*
X47580952Y-80938571D01*
X52304761Y-81414761D02*
X51161904Y-81414761D01*
X51733332Y-81414761D02*
X51733332Y-79414761D01*
X51733332Y-79414761D02*
X51542856Y-79700476D01*
X51542856Y-79700476D02*
X51352380Y-79890952D01*
X51352380Y-79890952D02*
X51161904Y-79986190D01*
X53161904Y-81414761D02*
X53161904Y-79414761D01*
X54304761Y-81414761D02*
X53447618Y-80271904D01*
X54304761Y-79414761D02*
X53161904Y-80557619D01*
X43619047Y-84654761D02*
X42952380Y-83702380D01*
X42476190Y-84654761D02*
X42476190Y-82654761D01*
X42476190Y-82654761D02*
X43238095Y-82654761D01*
X43238095Y-82654761D02*
X43428571Y-82750000D01*
X43428571Y-82750000D02*
X43523809Y-82845238D01*
X43523809Y-82845238D02*
X43619047Y-83035714D01*
X43619047Y-83035714D02*
X43619047Y-83321428D01*
X43619047Y-83321428D02*
X43523809Y-83511904D01*
X43523809Y-83511904D02*
X43428571Y-83607142D01*
X43428571Y-83607142D02*
X43238095Y-83702380D01*
X43238095Y-83702380D02*
X42476190Y-83702380D01*
X44380952Y-82845238D02*
X44476190Y-82750000D01*
X44476190Y-82750000D02*
X44666666Y-82654761D01*
X44666666Y-82654761D02*
X45142857Y-82654761D01*
X45142857Y-82654761D02*
X45333333Y-82750000D01*
X45333333Y-82750000D02*
X45428571Y-82845238D01*
X45428571Y-82845238D02*
X45523809Y-83035714D01*
X45523809Y-83035714D02*
X45523809Y-83226190D01*
X45523809Y-83226190D02*
X45428571Y-83511904D01*
X45428571Y-83511904D02*
X44285714Y-84654761D01*
X44285714Y-84654761D02*
X45523809Y-84654761D01*
X47580952Y-83607142D02*
X49104762Y-83607142D01*
X49104762Y-84178571D02*
X47580952Y-84178571D01*
X52304761Y-84654761D02*
X51161904Y-84654761D01*
X51733332Y-84654761D02*
X51733332Y-82654761D01*
X51733332Y-82654761D02*
X51542856Y-82940476D01*
X51542856Y-82940476D02*
X51352380Y-83130952D01*
X51352380Y-83130952D02*
X51161904Y-83226190D01*
X53161904Y-84654761D02*
X53161904Y-82654761D01*
X54304761Y-84654761D02*
X53447618Y-83511904D01*
X54304761Y-82654761D02*
X53161904Y-83797619D01*
D13*
X42285714Y-74964761D02*
X43523809Y-74964761D01*
X43523809Y-74964761D02*
X42857142Y-75726666D01*
X42857142Y-75726666D02*
X43142857Y-75726666D01*
X43142857Y-75726666D02*
X43333333Y-75821904D01*
X43333333Y-75821904D02*
X43428571Y-75917142D01*
X43428571Y-75917142D02*
X43523809Y-76107619D01*
X43523809Y-76107619D02*
X43523809Y-76583809D01*
X43523809Y-76583809D02*
X43428571Y-76774285D01*
X43428571Y-76774285D02*
X43333333Y-76869523D01*
X43333333Y-76869523D02*
X43142857Y-76964761D01*
X43142857Y-76964761D02*
X42571428Y-76964761D01*
X42571428Y-76964761D02*
X42380952Y-76869523D01*
X42380952Y-76869523D02*
X42285714Y-76774285D01*
X44380952Y-76774285D02*
X44476190Y-76869523D01*
X44476190Y-76869523D02*
X44380952Y-76964761D01*
X44380952Y-76964761D02*
X44285714Y-76869523D01*
X44285714Y-76869523D02*
X44380952Y-76774285D01*
X44380952Y-76774285D02*
X44380952Y-76964761D01*
X45142857Y-74964761D02*
X46380952Y-74964761D01*
X46380952Y-74964761D02*
X45714285Y-75726666D01*
X45714285Y-75726666D02*
X46000000Y-75726666D01*
X46000000Y-75726666D02*
X46190476Y-75821904D01*
X46190476Y-75821904D02*
X46285714Y-75917142D01*
X46285714Y-75917142D02*
X46380952Y-76107619D01*
X46380952Y-76107619D02*
X46380952Y-76583809D01*
X46380952Y-76583809D02*
X46285714Y-76774285D01*
X46285714Y-76774285D02*
X46190476Y-76869523D01*
X46190476Y-76869523D02*
X46000000Y-76964761D01*
X46000000Y-76964761D02*
X45428571Y-76964761D01*
X45428571Y-76964761D02*
X45238095Y-76869523D01*
X45238095Y-76869523D02*
X45142857Y-76774285D01*
X46952381Y-74964761D02*
X47619047Y-76964761D01*
X47619047Y-76964761D02*
X48285714Y-74964761D01*
D14*
X43537142Y-53123571D02*
X43537142Y-51623571D01*
X43537142Y-51623571D02*
X44108571Y-51623571D01*
X44108571Y-51623571D02*
X44251428Y-51695000D01*
X44251428Y-51695000D02*
X44322857Y-51766428D01*
X44322857Y-51766428D02*
X44394285Y-51909285D01*
X44394285Y-51909285D02*
X44394285Y-52123571D01*
X44394285Y-52123571D02*
X44322857Y-52266428D01*
X44322857Y-52266428D02*
X44251428Y-52337857D01*
X44251428Y-52337857D02*
X44108571Y-52409285D01*
X44108571Y-52409285D02*
X43537142Y-52409285D01*
X44965714Y-53052142D02*
X45180000Y-53123571D01*
X45180000Y-53123571D02*
X45537142Y-53123571D01*
X45537142Y-53123571D02*
X45680000Y-53052142D01*
X45680000Y-53052142D02*
X45751428Y-52980714D01*
X45751428Y-52980714D02*
X45822857Y-52837857D01*
X45822857Y-52837857D02*
X45822857Y-52695000D01*
X45822857Y-52695000D02*
X45751428Y-52552142D01*
X45751428Y-52552142D02*
X45680000Y-52480714D01*
X45680000Y-52480714D02*
X45537142Y-52409285D01*
X45537142Y-52409285D02*
X45251428Y-52337857D01*
X45251428Y-52337857D02*
X45108571Y-52266428D01*
X45108571Y-52266428D02*
X45037142Y-52195000D01*
X45037142Y-52195000D02*
X44965714Y-52052142D01*
X44965714Y-52052142D02*
X44965714Y-51909285D01*
X44965714Y-51909285D02*
X45037142Y-51766428D01*
X45037142Y-51766428D02*
X45108571Y-51695000D01*
X45108571Y-51695000D02*
X45251428Y-51623571D01*
X45251428Y-51623571D02*
X45608571Y-51623571D01*
X45608571Y-51623571D02*
X45822857Y-51695000D01*
X46465713Y-53123571D02*
X46465713Y-51623571D01*
X46465713Y-51623571D02*
X47037142Y-51623571D01*
X47037142Y-51623571D02*
X47179999Y-51695000D01*
X47179999Y-51695000D02*
X47251428Y-51766428D01*
X47251428Y-51766428D02*
X47322856Y-51909285D01*
X47322856Y-51909285D02*
X47322856Y-52123571D01*
X47322856Y-52123571D02*
X47251428Y-52266428D01*
X47251428Y-52266428D02*
X47179999Y-52337857D01*
X47179999Y-52337857D02*
X47037142Y-52409285D01*
X47037142Y-52409285D02*
X46465713Y-52409285D01*
X49651428Y-51695000D02*
X49508571Y-51623571D01*
X49508571Y-51623571D02*
X49294285Y-51623571D01*
X49294285Y-51623571D02*
X49079999Y-51695000D01*
X49079999Y-51695000D02*
X48937142Y-51837857D01*
X48937142Y-51837857D02*
X48865713Y-51980714D01*
X48865713Y-51980714D02*
X48794285Y-52266428D01*
X48794285Y-52266428D02*
X48794285Y-52480714D01*
X48794285Y-52480714D02*
X48865713Y-52766428D01*
X48865713Y-52766428D02*
X48937142Y-52909285D01*
X48937142Y-52909285D02*
X49079999Y-53052142D01*
X49079999Y-53052142D02*
X49294285Y-53123571D01*
X49294285Y-53123571D02*
X49437142Y-53123571D01*
X49437142Y-53123571D02*
X49651428Y-53052142D01*
X49651428Y-53052142D02*
X49722856Y-52980714D01*
X49722856Y-52980714D02*
X49722856Y-52480714D01*
X49722856Y-52480714D02*
X49437142Y-52480714D01*
X50651428Y-51623571D02*
X50937142Y-51623571D01*
X50937142Y-51623571D02*
X51079999Y-51695000D01*
X51079999Y-51695000D02*
X51222856Y-51837857D01*
X51222856Y-51837857D02*
X51294285Y-52123571D01*
X51294285Y-52123571D02*
X51294285Y-52623571D01*
X51294285Y-52623571D02*
X51222856Y-52909285D01*
X51222856Y-52909285D02*
X51079999Y-53052142D01*
X51079999Y-53052142D02*
X50937142Y-53123571D01*
X50937142Y-53123571D02*
X50651428Y-53123571D01*
X50651428Y-53123571D02*
X50508571Y-53052142D01*
X50508571Y-53052142D02*
X50365713Y-52909285D01*
X50365713Y-52909285D02*
X50294285Y-52623571D01*
X50294285Y-52623571D02*
X50294285Y-52123571D01*
X50294285Y-52123571D02*
X50365713Y-51837857D01*
X50365713Y-51837857D02*
X50508571Y-51695000D01*
X50508571Y-51695000D02*
X50651428Y-51623571D01*
X52622857Y-51623571D02*
X53480000Y-51623571D01*
X53051428Y-53123571D02*
X53051428Y-51623571D01*
X53979999Y-53123571D02*
X53979999Y-51623571D01*
X53979999Y-52337857D02*
X54837142Y-52337857D01*
X54837142Y-53123571D02*
X54837142Y-51623571D01*
X55337143Y-51623571D02*
X56194286Y-51623571D01*
X55765714Y-53123571D02*
X55765714Y-51623571D01*
X58022857Y-51623571D02*
X58022857Y-52695000D01*
X58022857Y-52695000D02*
X57951428Y-52909285D01*
X57951428Y-52909285D02*
X57808571Y-53052142D01*
X57808571Y-53052142D02*
X57594285Y-53123571D01*
X57594285Y-53123571D02*
X57451428Y-53123571D01*
X58737142Y-53123571D02*
X58737142Y-51623571D01*
X60237143Y-51695000D02*
X60094286Y-51623571D01*
X60094286Y-51623571D02*
X59880000Y-51623571D01*
X59880000Y-51623571D02*
X59665714Y-51695000D01*
X59665714Y-51695000D02*
X59522857Y-51837857D01*
X59522857Y-51837857D02*
X59451428Y-51980714D01*
X59451428Y-51980714D02*
X59380000Y-52266428D01*
X59380000Y-52266428D02*
X59380000Y-52480714D01*
X59380000Y-52480714D02*
X59451428Y-52766428D01*
X59451428Y-52766428D02*
X59522857Y-52909285D01*
X59522857Y-52909285D02*
X59665714Y-53052142D01*
X59665714Y-53052142D02*
X59880000Y-53123571D01*
X59880000Y-53123571D02*
X60022857Y-53123571D01*
X60022857Y-53123571D02*
X60237143Y-53052142D01*
X60237143Y-53052142D02*
X60308571Y-52980714D01*
X60308571Y-52980714D02*
X60308571Y-52480714D01*
X60308571Y-52480714D02*
X60022857Y-52480714D01*
X62351428Y-52337857D02*
X62565714Y-52409285D01*
X62565714Y-52409285D02*
X62637143Y-52480714D01*
X62637143Y-52480714D02*
X62708571Y-52623571D01*
X62708571Y-52623571D02*
X62708571Y-52837857D01*
X62708571Y-52837857D02*
X62637143Y-52980714D01*
X62637143Y-52980714D02*
X62565714Y-53052142D01*
X62565714Y-53052142D02*
X62422857Y-53123571D01*
X62422857Y-53123571D02*
X61851428Y-53123571D01*
X61851428Y-53123571D02*
X61851428Y-51623571D01*
X61851428Y-51623571D02*
X62351428Y-51623571D01*
X62351428Y-51623571D02*
X62494286Y-51695000D01*
X62494286Y-51695000D02*
X62565714Y-51766428D01*
X62565714Y-51766428D02*
X62637143Y-51909285D01*
X62637143Y-51909285D02*
X62637143Y-52052142D01*
X62637143Y-52052142D02*
X62565714Y-52195000D01*
X62565714Y-52195000D02*
X62494286Y-52266428D01*
X62494286Y-52266428D02*
X62351428Y-52337857D01*
X62351428Y-52337857D02*
X61851428Y-52337857D01*
X63637143Y-51623571D02*
X63922857Y-51623571D01*
X63922857Y-51623571D02*
X64065714Y-51695000D01*
X64065714Y-51695000D02*
X64208571Y-51837857D01*
X64208571Y-51837857D02*
X64280000Y-52123571D01*
X64280000Y-52123571D02*
X64280000Y-52623571D01*
X64280000Y-52623571D02*
X64208571Y-52909285D01*
X64208571Y-52909285D02*
X64065714Y-53052142D01*
X64065714Y-53052142D02*
X63922857Y-53123571D01*
X63922857Y-53123571D02*
X63637143Y-53123571D01*
X63637143Y-53123571D02*
X63494286Y-53052142D01*
X63494286Y-53052142D02*
X63351428Y-52909285D01*
X63351428Y-52909285D02*
X63280000Y-52623571D01*
X63280000Y-52623571D02*
X63280000Y-52123571D01*
X63280000Y-52123571D02*
X63351428Y-51837857D01*
X63351428Y-51837857D02*
X63494286Y-51695000D01*
X63494286Y-51695000D02*
X63637143Y-51623571D01*
X64851429Y-52695000D02*
X65565715Y-52695000D01*
X64708572Y-53123571D02*
X65208572Y-51623571D01*
X65208572Y-51623571D02*
X65708572Y-53123571D01*
X67065714Y-53123571D02*
X66565714Y-52409285D01*
X66208571Y-53123571D02*
X66208571Y-51623571D01*
X66208571Y-51623571D02*
X66780000Y-51623571D01*
X66780000Y-51623571D02*
X66922857Y-51695000D01*
X66922857Y-51695000D02*
X66994286Y-51766428D01*
X66994286Y-51766428D02*
X67065714Y-51909285D01*
X67065714Y-51909285D02*
X67065714Y-52123571D01*
X67065714Y-52123571D02*
X66994286Y-52266428D01*
X66994286Y-52266428D02*
X66922857Y-52337857D01*
X66922857Y-52337857D02*
X66780000Y-52409285D01*
X66780000Y-52409285D02*
X66208571Y-52409285D01*
X67708571Y-53123571D02*
X67708571Y-51623571D01*
X67708571Y-51623571D02*
X68065714Y-51623571D01*
X68065714Y-51623571D02*
X68280000Y-51695000D01*
X68280000Y-51695000D02*
X68422857Y-51837857D01*
X68422857Y-51837857D02*
X68494286Y-51980714D01*
X68494286Y-51980714D02*
X68565714Y-52266428D01*
X68565714Y-52266428D02*
X68565714Y-52480714D01*
X68565714Y-52480714D02*
X68494286Y-52766428D01*
X68494286Y-52766428D02*
X68422857Y-52909285D01*
X68422857Y-52909285D02*
X68280000Y-53052142D01*
X68280000Y-53052142D02*
X68065714Y-53123571D01*
X68065714Y-53123571D02*
X67708571Y-53123571D01*
X70894286Y-53123571D02*
X70037143Y-53123571D01*
X70465714Y-53123571D02*
X70465714Y-51623571D01*
X70465714Y-51623571D02*
X70322857Y-51837857D01*
X70322857Y-51837857D02*
X70180000Y-51980714D01*
X70180000Y-51980714D02*
X70037143Y-52052142D01*
X71537142Y-52980714D02*
X71608571Y-53052142D01*
X71608571Y-53052142D02*
X71537142Y-53123571D01*
X71537142Y-53123571D02*
X71465714Y-53052142D01*
X71465714Y-53052142D02*
X71537142Y-52980714D01*
X71537142Y-52980714D02*
X71537142Y-53123571D01*
X72537143Y-51623571D02*
X72680000Y-51623571D01*
X72680000Y-51623571D02*
X72822857Y-51695000D01*
X72822857Y-51695000D02*
X72894286Y-51766428D01*
X72894286Y-51766428D02*
X72965714Y-51909285D01*
X72965714Y-51909285D02*
X73037143Y-52195000D01*
X73037143Y-52195000D02*
X73037143Y-52552142D01*
X73037143Y-52552142D02*
X72965714Y-52837857D01*
X72965714Y-52837857D02*
X72894286Y-52980714D01*
X72894286Y-52980714D02*
X72822857Y-53052142D01*
X72822857Y-53052142D02*
X72680000Y-53123571D01*
X72680000Y-53123571D02*
X72537143Y-53123571D01*
X72537143Y-53123571D02*
X72394286Y-53052142D01*
X72394286Y-53052142D02*
X72322857Y-52980714D01*
X72322857Y-52980714D02*
X72251428Y-52837857D01*
X72251428Y-52837857D02*
X72180000Y-52552142D01*
X72180000Y-52552142D02*
X72180000Y-52195000D01*
X72180000Y-52195000D02*
X72251428Y-51909285D01*
X72251428Y-51909285D02*
X72322857Y-51766428D01*
X72322857Y-51766428D02*
X72394286Y-51695000D01*
X72394286Y-51695000D02*
X72537143Y-51623571D01*
X44037142Y-54767857D02*
X44251428Y-54839285D01*
X44251428Y-54839285D02*
X44322857Y-54910714D01*
X44322857Y-54910714D02*
X44394285Y-55053571D01*
X44394285Y-55053571D02*
X44394285Y-55267857D01*
X44394285Y-55267857D02*
X44322857Y-55410714D01*
X44322857Y-55410714D02*
X44251428Y-55482142D01*
X44251428Y-55482142D02*
X44108571Y-55553571D01*
X44108571Y-55553571D02*
X43537142Y-55553571D01*
X43537142Y-55553571D02*
X43537142Y-54053571D01*
X43537142Y-54053571D02*
X44037142Y-54053571D01*
X44037142Y-54053571D02*
X44180000Y-54125000D01*
X44180000Y-54125000D02*
X44251428Y-54196428D01*
X44251428Y-54196428D02*
X44322857Y-54339285D01*
X44322857Y-54339285D02*
X44322857Y-54482142D01*
X44322857Y-54482142D02*
X44251428Y-54625000D01*
X44251428Y-54625000D02*
X44180000Y-54696428D01*
X44180000Y-54696428D02*
X44037142Y-54767857D01*
X44037142Y-54767857D02*
X43537142Y-54767857D01*
X44894285Y-54553571D02*
X45251428Y-55553571D01*
X45608571Y-54553571D02*
X45251428Y-55553571D01*
X45251428Y-55553571D02*
X45108571Y-55910714D01*
X45108571Y-55910714D02*
X45037142Y-55982142D01*
X45037142Y-55982142D02*
X44894285Y-56053571D01*
X47079999Y-55553571D02*
X47079999Y-54053571D01*
X47079999Y-54053571D02*
X47579999Y-55125000D01*
X47579999Y-55125000D02*
X48079999Y-54053571D01*
X48079999Y-54053571D02*
X48079999Y-55553571D01*
X49437143Y-55553571D02*
X49437143Y-54767857D01*
X49437143Y-54767857D02*
X49365714Y-54625000D01*
X49365714Y-54625000D02*
X49222857Y-54553571D01*
X49222857Y-54553571D02*
X48937143Y-54553571D01*
X48937143Y-54553571D02*
X48794285Y-54625000D01*
X49437143Y-55482142D02*
X49294285Y-55553571D01*
X49294285Y-55553571D02*
X48937143Y-55553571D01*
X48937143Y-55553571D02*
X48794285Y-55482142D01*
X48794285Y-55482142D02*
X48722857Y-55339285D01*
X48722857Y-55339285D02*
X48722857Y-55196428D01*
X48722857Y-55196428D02*
X48794285Y-55053571D01*
X48794285Y-55053571D02*
X48937143Y-54982142D01*
X48937143Y-54982142D02*
X49294285Y-54982142D01*
X49294285Y-54982142D02*
X49437143Y-54910714D01*
X49937143Y-54553571D02*
X50508571Y-54553571D01*
X50151428Y-54053571D02*
X50151428Y-55339285D01*
X50151428Y-55339285D02*
X50222857Y-55482142D01*
X50222857Y-55482142D02*
X50365714Y-55553571D01*
X50365714Y-55553571D02*
X50508571Y-55553571D01*
X51008571Y-55553571D02*
X51008571Y-54053571D01*
X51651429Y-55553571D02*
X51651429Y-54767857D01*
X51651429Y-54767857D02*
X51580000Y-54625000D01*
X51580000Y-54625000D02*
X51437143Y-54553571D01*
X51437143Y-54553571D02*
X51222857Y-54553571D01*
X51222857Y-54553571D02*
X51080000Y-54625000D01*
X51080000Y-54625000D02*
X51008571Y-54696428D01*
X52365714Y-55553571D02*
X52365714Y-54553571D01*
X52365714Y-54053571D02*
X52294286Y-54125000D01*
X52294286Y-54125000D02*
X52365714Y-54196428D01*
X52365714Y-54196428D02*
X52437143Y-54125000D01*
X52437143Y-54125000D02*
X52365714Y-54053571D01*
X52365714Y-54053571D02*
X52365714Y-54196428D01*
X53651429Y-55482142D02*
X53508572Y-55553571D01*
X53508572Y-55553571D02*
X53222858Y-55553571D01*
X53222858Y-55553571D02*
X53080000Y-55482142D01*
X53080000Y-55482142D02*
X53008572Y-55339285D01*
X53008572Y-55339285D02*
X53008572Y-54767857D01*
X53008572Y-54767857D02*
X53080000Y-54625000D01*
X53080000Y-54625000D02*
X53222858Y-54553571D01*
X53222858Y-54553571D02*
X53508572Y-54553571D01*
X53508572Y-54553571D02*
X53651429Y-54625000D01*
X53651429Y-54625000D02*
X53722858Y-54767857D01*
X53722858Y-54767857D02*
X53722858Y-54910714D01*
X53722858Y-54910714D02*
X53008572Y-55053571D01*
X55008572Y-54553571D02*
X55008572Y-55553571D01*
X54365714Y-54553571D02*
X54365714Y-55339285D01*
X54365714Y-55339285D02*
X54437143Y-55482142D01*
X54437143Y-55482142D02*
X54580000Y-55553571D01*
X54580000Y-55553571D02*
X54794286Y-55553571D01*
X54794286Y-55553571D02*
X54937143Y-55482142D01*
X54937143Y-55482142D02*
X55008572Y-55410714D01*
X55937143Y-55553571D02*
X55794286Y-55482142D01*
X55794286Y-55482142D02*
X55722857Y-55339285D01*
X55722857Y-55339285D02*
X55722857Y-54053571D01*
X56508571Y-55553571D02*
X56508571Y-54053571D01*
X57151429Y-55553571D02*
X57151429Y-54767857D01*
X57151429Y-54767857D02*
X57080000Y-54625000D01*
X57080000Y-54625000D02*
X56937143Y-54553571D01*
X56937143Y-54553571D02*
X56722857Y-54553571D01*
X56722857Y-54553571D02*
X56580000Y-54625000D01*
X56580000Y-54625000D02*
X56508571Y-54696428D01*
D13*
X43428571Y-62064761D02*
X42476190Y-62064761D01*
X42476190Y-62064761D02*
X42380952Y-63017142D01*
X42380952Y-63017142D02*
X42476190Y-62921904D01*
X42476190Y-62921904D02*
X42666666Y-62826666D01*
X42666666Y-62826666D02*
X43142857Y-62826666D01*
X43142857Y-62826666D02*
X43333333Y-62921904D01*
X43333333Y-62921904D02*
X43428571Y-63017142D01*
X43428571Y-63017142D02*
X43523809Y-63207619D01*
X43523809Y-63207619D02*
X43523809Y-63683809D01*
X43523809Y-63683809D02*
X43428571Y-63874285D01*
X43428571Y-63874285D02*
X43333333Y-63969523D01*
X43333333Y-63969523D02*
X43142857Y-64064761D01*
X43142857Y-64064761D02*
X42666666Y-64064761D01*
X42666666Y-64064761D02*
X42476190Y-63969523D01*
X42476190Y-63969523D02*
X42380952Y-63874285D01*
X44095238Y-62064761D02*
X44761904Y-64064761D01*
X44761904Y-64064761D02*
X45428571Y-62064761D01*
D11*
%TO.C,PIN 24*%
X79003810Y-74569380D02*
X79003810Y-73569380D01*
X79003810Y-73569380D02*
X79384762Y-73569380D01*
X79384762Y-73569380D02*
X79480000Y-73617000D01*
X79480000Y-73617000D02*
X79527619Y-73664619D01*
X79527619Y-73664619D02*
X79575238Y-73759857D01*
X79575238Y-73759857D02*
X79575238Y-73902714D01*
X79575238Y-73902714D02*
X79527619Y-73997952D01*
X79527619Y-73997952D02*
X79480000Y-74045571D01*
X79480000Y-74045571D02*
X79384762Y-74093190D01*
X79384762Y-74093190D02*
X79003810Y-74093190D01*
X80003810Y-74569380D02*
X80003810Y-73569380D01*
X80480000Y-74569380D02*
X80480000Y-73569380D01*
X80480000Y-73569380D02*
X81051428Y-74569380D01*
X81051428Y-74569380D02*
X81051428Y-73569380D01*
X82080000Y-73664619D02*
X82127619Y-73617000D01*
X82127619Y-73617000D02*
X82222857Y-73569380D01*
X82222857Y-73569380D02*
X82460952Y-73569380D01*
X82460952Y-73569380D02*
X82556190Y-73617000D01*
X82556190Y-73617000D02*
X82603809Y-73664619D01*
X82603809Y-73664619D02*
X82651428Y-73759857D01*
X82651428Y-73759857D02*
X82651428Y-73855095D01*
X82651428Y-73855095D02*
X82603809Y-73997952D01*
X82603809Y-73997952D02*
X82032381Y-74569380D01*
X82032381Y-74569380D02*
X82651428Y-74569380D01*
X83508571Y-73902714D02*
X83508571Y-74569380D01*
X83270476Y-73521761D02*
X83032381Y-74236047D01*
X83032381Y-74236047D02*
X83651428Y-74236047D01*
%TO.C,PC TX*%
X36180952Y-81189380D02*
X36180952Y-80189380D01*
X36180952Y-80189380D02*
X36561904Y-80189380D01*
X36561904Y-80189380D02*
X36657142Y-80237000D01*
X36657142Y-80237000D02*
X36704761Y-80284619D01*
X36704761Y-80284619D02*
X36752380Y-80379857D01*
X36752380Y-80379857D02*
X36752380Y-80522714D01*
X36752380Y-80522714D02*
X36704761Y-80617952D01*
X36704761Y-80617952D02*
X36657142Y-80665571D01*
X36657142Y-80665571D02*
X36561904Y-80713190D01*
X36561904Y-80713190D02*
X36180952Y-80713190D01*
X37752380Y-81094142D02*
X37704761Y-81141761D01*
X37704761Y-81141761D02*
X37561904Y-81189380D01*
X37561904Y-81189380D02*
X37466666Y-81189380D01*
X37466666Y-81189380D02*
X37323809Y-81141761D01*
X37323809Y-81141761D02*
X37228571Y-81046523D01*
X37228571Y-81046523D02*
X37180952Y-80951285D01*
X37180952Y-80951285D02*
X37133333Y-80760809D01*
X37133333Y-80760809D02*
X37133333Y-80617952D01*
X37133333Y-80617952D02*
X37180952Y-80427476D01*
X37180952Y-80427476D02*
X37228571Y-80332238D01*
X37228571Y-80332238D02*
X37323809Y-80237000D01*
X37323809Y-80237000D02*
X37466666Y-80189380D01*
X37466666Y-80189380D02*
X37561904Y-80189380D01*
X37561904Y-80189380D02*
X37704761Y-80237000D01*
X37704761Y-80237000D02*
X37752380Y-80284619D01*
X38638095Y-80189380D02*
X39209523Y-80189380D01*
X38923809Y-81189380D02*
X38923809Y-80189380D01*
X39447619Y-80189380D02*
X40114285Y-81189380D01*
X40114285Y-80189380D02*
X39447619Y-81189380D01*
D14*
%TO.C,R2*%
X69516666Y-46454761D02*
X68849999Y-45502380D01*
X68373809Y-46454761D02*
X68373809Y-44454761D01*
X68373809Y-44454761D02*
X69135714Y-44454761D01*
X69135714Y-44454761D02*
X69326190Y-44550000D01*
X69326190Y-44550000D02*
X69421428Y-44645238D01*
X69421428Y-44645238D02*
X69516666Y-44835714D01*
X69516666Y-44835714D02*
X69516666Y-45121428D01*
X69516666Y-45121428D02*
X69421428Y-45311904D01*
X69421428Y-45311904D02*
X69326190Y-45407142D01*
X69326190Y-45407142D02*
X69135714Y-45502380D01*
X69135714Y-45502380D02*
X68373809Y-45502380D01*
X70278571Y-44645238D02*
X70373809Y-44550000D01*
X70373809Y-44550000D02*
X70564285Y-44454761D01*
X70564285Y-44454761D02*
X71040476Y-44454761D01*
X71040476Y-44454761D02*
X71230952Y-44550000D01*
X71230952Y-44550000D02*
X71326190Y-44645238D01*
X71326190Y-44645238D02*
X71421428Y-44835714D01*
X71421428Y-44835714D02*
X71421428Y-45026190D01*
X71421428Y-45026190D02*
X71326190Y-45311904D01*
X71326190Y-45311904D02*
X70183333Y-46454761D01*
X70183333Y-46454761D02*
X71421428Y-46454761D01*
D11*
%TO.C,PIN 20*%
X79003810Y-82189380D02*
X79003810Y-81189380D01*
X79003810Y-81189380D02*
X79384762Y-81189380D01*
X79384762Y-81189380D02*
X79480000Y-81237000D01*
X79480000Y-81237000D02*
X79527619Y-81284619D01*
X79527619Y-81284619D02*
X79575238Y-81379857D01*
X79575238Y-81379857D02*
X79575238Y-81522714D01*
X79575238Y-81522714D02*
X79527619Y-81617952D01*
X79527619Y-81617952D02*
X79480000Y-81665571D01*
X79480000Y-81665571D02*
X79384762Y-81713190D01*
X79384762Y-81713190D02*
X79003810Y-81713190D01*
X80003810Y-82189380D02*
X80003810Y-81189380D01*
X80480000Y-82189380D02*
X80480000Y-81189380D01*
X80480000Y-81189380D02*
X81051428Y-82189380D01*
X81051428Y-82189380D02*
X81051428Y-81189380D01*
X82080000Y-81284619D02*
X82127619Y-81237000D01*
X82127619Y-81237000D02*
X82222857Y-81189380D01*
X82222857Y-81189380D02*
X82460952Y-81189380D01*
X82460952Y-81189380D02*
X82556190Y-81237000D01*
X82556190Y-81237000D02*
X82603809Y-81284619D01*
X82603809Y-81284619D02*
X82651428Y-81379857D01*
X82651428Y-81379857D02*
X82651428Y-81475095D01*
X82651428Y-81475095D02*
X82603809Y-81617952D01*
X82603809Y-81617952D02*
X82032381Y-82189380D01*
X82032381Y-82189380D02*
X82651428Y-82189380D01*
X83270476Y-81189380D02*
X83365714Y-81189380D01*
X83365714Y-81189380D02*
X83460952Y-81237000D01*
X83460952Y-81237000D02*
X83508571Y-81284619D01*
X83508571Y-81284619D02*
X83556190Y-81379857D01*
X83556190Y-81379857D02*
X83603809Y-81570333D01*
X83603809Y-81570333D02*
X83603809Y-81808428D01*
X83603809Y-81808428D02*
X83556190Y-81998904D01*
X83556190Y-81998904D02*
X83508571Y-82094142D01*
X83508571Y-82094142D02*
X83460952Y-82141761D01*
X83460952Y-82141761D02*
X83365714Y-82189380D01*
X83365714Y-82189380D02*
X83270476Y-82189380D01*
X83270476Y-82189380D02*
X83175238Y-82141761D01*
X83175238Y-82141761D02*
X83127619Y-82094142D01*
X83127619Y-82094142D02*
X83080000Y-81998904D01*
X83080000Y-81998904D02*
X83032381Y-81808428D01*
X83032381Y-81808428D02*
X83032381Y-81570333D01*
X83032381Y-81570333D02*
X83080000Y-81379857D01*
X83080000Y-81379857D02*
X83127619Y-81284619D01*
X83127619Y-81284619D02*
X83175238Y-81237000D01*
X83175238Y-81237000D02*
X83270476Y-81189380D01*
%TO.C,PIN 14*%
X79003810Y-59329380D02*
X79003810Y-58329380D01*
X79003810Y-58329380D02*
X79384762Y-58329380D01*
X79384762Y-58329380D02*
X79480000Y-58377000D01*
X79480000Y-58377000D02*
X79527619Y-58424619D01*
X79527619Y-58424619D02*
X79575238Y-58519857D01*
X79575238Y-58519857D02*
X79575238Y-58662714D01*
X79575238Y-58662714D02*
X79527619Y-58757952D01*
X79527619Y-58757952D02*
X79480000Y-58805571D01*
X79480000Y-58805571D02*
X79384762Y-58853190D01*
X79384762Y-58853190D02*
X79003810Y-58853190D01*
X80003810Y-59329380D02*
X80003810Y-58329380D01*
X80480000Y-59329380D02*
X80480000Y-58329380D01*
X80480000Y-58329380D02*
X81051428Y-59329380D01*
X81051428Y-59329380D02*
X81051428Y-58329380D01*
X82651428Y-59329380D02*
X82080000Y-59329380D01*
X82365714Y-59329380D02*
X82365714Y-58329380D01*
X82365714Y-58329380D02*
X82270476Y-58472238D01*
X82270476Y-58472238D02*
X82175238Y-58567476D01*
X82175238Y-58567476D02*
X82080000Y-58615095D01*
X83508571Y-58662714D02*
X83508571Y-59329380D01*
X83270476Y-58281761D02*
X83032381Y-58996047D01*
X83032381Y-58996047D02*
X83651428Y-58996047D01*
%TO.C,PIN 22*%
X79003810Y-89809380D02*
X79003810Y-88809380D01*
X79003810Y-88809380D02*
X79384762Y-88809380D01*
X79384762Y-88809380D02*
X79480000Y-88857000D01*
X79480000Y-88857000D02*
X79527619Y-88904619D01*
X79527619Y-88904619D02*
X79575238Y-88999857D01*
X79575238Y-88999857D02*
X79575238Y-89142714D01*
X79575238Y-89142714D02*
X79527619Y-89237952D01*
X79527619Y-89237952D02*
X79480000Y-89285571D01*
X79480000Y-89285571D02*
X79384762Y-89333190D01*
X79384762Y-89333190D02*
X79003810Y-89333190D01*
X80003810Y-89809380D02*
X80003810Y-88809380D01*
X80480000Y-89809380D02*
X80480000Y-88809380D01*
X80480000Y-88809380D02*
X81051428Y-89809380D01*
X81051428Y-89809380D02*
X81051428Y-88809380D01*
X82080000Y-88904619D02*
X82127619Y-88857000D01*
X82127619Y-88857000D02*
X82222857Y-88809380D01*
X82222857Y-88809380D02*
X82460952Y-88809380D01*
X82460952Y-88809380D02*
X82556190Y-88857000D01*
X82556190Y-88857000D02*
X82603809Y-88904619D01*
X82603809Y-88904619D02*
X82651428Y-88999857D01*
X82651428Y-88999857D02*
X82651428Y-89095095D01*
X82651428Y-89095095D02*
X82603809Y-89237952D01*
X82603809Y-89237952D02*
X82032381Y-89809380D01*
X82032381Y-89809380D02*
X82651428Y-89809380D01*
X83032381Y-88904619D02*
X83080000Y-88857000D01*
X83080000Y-88857000D02*
X83175238Y-88809380D01*
X83175238Y-88809380D02*
X83413333Y-88809380D01*
X83413333Y-88809380D02*
X83508571Y-88857000D01*
X83508571Y-88857000D02*
X83556190Y-88904619D01*
X83556190Y-88904619D02*
X83603809Y-88999857D01*
X83603809Y-88999857D02*
X83603809Y-89095095D01*
X83603809Y-89095095D02*
X83556190Y-89237952D01*
X83556190Y-89237952D02*
X82984762Y-89809380D01*
X82984762Y-89809380D02*
X83603809Y-89809380D01*
%TO.C,PIN 17*%
X79263810Y-66949380D02*
X79263810Y-65949380D01*
X79263810Y-65949380D02*
X79644762Y-65949380D01*
X79644762Y-65949380D02*
X79740000Y-65997000D01*
X79740000Y-65997000D02*
X79787619Y-66044619D01*
X79787619Y-66044619D02*
X79835238Y-66139857D01*
X79835238Y-66139857D02*
X79835238Y-66282714D01*
X79835238Y-66282714D02*
X79787619Y-66377952D01*
X79787619Y-66377952D02*
X79740000Y-66425571D01*
X79740000Y-66425571D02*
X79644762Y-66473190D01*
X79644762Y-66473190D02*
X79263810Y-66473190D01*
X80263810Y-66949380D02*
X80263810Y-65949380D01*
X80740000Y-66949380D02*
X80740000Y-65949380D01*
X80740000Y-65949380D02*
X81311428Y-66949380D01*
X81311428Y-66949380D02*
X81311428Y-65949380D01*
X82911428Y-66949380D02*
X82340000Y-66949380D01*
X82625714Y-66949380D02*
X82625714Y-65949380D01*
X82625714Y-65949380D02*
X82530476Y-66092238D01*
X82530476Y-66092238D02*
X82435238Y-66187476D01*
X82435238Y-66187476D02*
X82340000Y-66235095D01*
X83244762Y-65949380D02*
X83911428Y-65949380D01*
X83911428Y-65949380D02*
X83482857Y-66949380D01*
%TO.C,5V (optional)*%
X33895237Y-100007324D02*
X33419047Y-100007324D01*
X33419047Y-100007324D02*
X33371428Y-100483515D01*
X33371428Y-100483515D02*
X33419047Y-100435896D01*
X33419047Y-100435896D02*
X33514285Y-100388277D01*
X33514285Y-100388277D02*
X33752380Y-100388277D01*
X33752380Y-100388277D02*
X33847618Y-100435896D01*
X33847618Y-100435896D02*
X33895237Y-100483515D01*
X33895237Y-100483515D02*
X33942856Y-100578753D01*
X33942856Y-100578753D02*
X33942856Y-100816848D01*
X33942856Y-100816848D02*
X33895237Y-100912086D01*
X33895237Y-100912086D02*
X33847618Y-100959705D01*
X33847618Y-100959705D02*
X33752380Y-101007324D01*
X33752380Y-101007324D02*
X33514285Y-101007324D01*
X33514285Y-101007324D02*
X33419047Y-100959705D01*
X33419047Y-100959705D02*
X33371428Y-100912086D01*
X34228571Y-100007324D02*
X34561904Y-101007324D01*
X34561904Y-101007324D02*
X34895237Y-100007324D01*
X36114285Y-101388277D02*
X36066666Y-101340658D01*
X36066666Y-101340658D02*
X35971428Y-101197801D01*
X35971428Y-101197801D02*
X35923809Y-101102563D01*
X35923809Y-101102563D02*
X35876190Y-100959705D01*
X35876190Y-100959705D02*
X35828571Y-100721610D01*
X35828571Y-100721610D02*
X35828571Y-100531134D01*
X35828571Y-100531134D02*
X35876190Y-100293039D01*
X35876190Y-100293039D02*
X35923809Y-100150182D01*
X35923809Y-100150182D02*
X35971428Y-100054944D01*
X35971428Y-100054944D02*
X36066666Y-99912086D01*
X36066666Y-99912086D02*
X36114285Y-99864467D01*
X36638095Y-101007324D02*
X36542857Y-100959705D01*
X36542857Y-100959705D02*
X36495238Y-100912086D01*
X36495238Y-100912086D02*
X36447619Y-100816848D01*
X36447619Y-100816848D02*
X36447619Y-100531134D01*
X36447619Y-100531134D02*
X36495238Y-100435896D01*
X36495238Y-100435896D02*
X36542857Y-100388277D01*
X36542857Y-100388277D02*
X36638095Y-100340658D01*
X36638095Y-100340658D02*
X36780952Y-100340658D01*
X36780952Y-100340658D02*
X36876190Y-100388277D01*
X36876190Y-100388277D02*
X36923809Y-100435896D01*
X36923809Y-100435896D02*
X36971428Y-100531134D01*
X36971428Y-100531134D02*
X36971428Y-100816848D01*
X36971428Y-100816848D02*
X36923809Y-100912086D01*
X36923809Y-100912086D02*
X36876190Y-100959705D01*
X36876190Y-100959705D02*
X36780952Y-101007324D01*
X36780952Y-101007324D02*
X36638095Y-101007324D01*
X37400000Y-100340658D02*
X37400000Y-101340658D01*
X37400000Y-100388277D02*
X37495238Y-100340658D01*
X37495238Y-100340658D02*
X37685714Y-100340658D01*
X37685714Y-100340658D02*
X37780952Y-100388277D01*
X37780952Y-100388277D02*
X37828571Y-100435896D01*
X37828571Y-100435896D02*
X37876190Y-100531134D01*
X37876190Y-100531134D02*
X37876190Y-100816848D01*
X37876190Y-100816848D02*
X37828571Y-100912086D01*
X37828571Y-100912086D02*
X37780952Y-100959705D01*
X37780952Y-100959705D02*
X37685714Y-101007324D01*
X37685714Y-101007324D02*
X37495238Y-101007324D01*
X37495238Y-101007324D02*
X37400000Y-100959705D01*
X38161905Y-100340658D02*
X38542857Y-100340658D01*
X38304762Y-100007324D02*
X38304762Y-100864467D01*
X38304762Y-100864467D02*
X38352381Y-100959705D01*
X38352381Y-100959705D02*
X38447619Y-101007324D01*
X38447619Y-101007324D02*
X38542857Y-101007324D01*
X38876191Y-101007324D02*
X38876191Y-100340658D01*
X38876191Y-100007324D02*
X38828572Y-100054944D01*
X38828572Y-100054944D02*
X38876191Y-100102563D01*
X38876191Y-100102563D02*
X38923810Y-100054944D01*
X38923810Y-100054944D02*
X38876191Y-100007324D01*
X38876191Y-100007324D02*
X38876191Y-100102563D01*
X39495238Y-101007324D02*
X39400000Y-100959705D01*
X39400000Y-100959705D02*
X39352381Y-100912086D01*
X39352381Y-100912086D02*
X39304762Y-100816848D01*
X39304762Y-100816848D02*
X39304762Y-100531134D01*
X39304762Y-100531134D02*
X39352381Y-100435896D01*
X39352381Y-100435896D02*
X39400000Y-100388277D01*
X39400000Y-100388277D02*
X39495238Y-100340658D01*
X39495238Y-100340658D02*
X39638095Y-100340658D01*
X39638095Y-100340658D02*
X39733333Y-100388277D01*
X39733333Y-100388277D02*
X39780952Y-100435896D01*
X39780952Y-100435896D02*
X39828571Y-100531134D01*
X39828571Y-100531134D02*
X39828571Y-100816848D01*
X39828571Y-100816848D02*
X39780952Y-100912086D01*
X39780952Y-100912086D02*
X39733333Y-100959705D01*
X39733333Y-100959705D02*
X39638095Y-101007324D01*
X39638095Y-101007324D02*
X39495238Y-101007324D01*
X40257143Y-100340658D02*
X40257143Y-101007324D01*
X40257143Y-100435896D02*
X40304762Y-100388277D01*
X40304762Y-100388277D02*
X40400000Y-100340658D01*
X40400000Y-100340658D02*
X40542857Y-100340658D01*
X40542857Y-100340658D02*
X40638095Y-100388277D01*
X40638095Y-100388277D02*
X40685714Y-100483515D01*
X40685714Y-100483515D02*
X40685714Y-101007324D01*
X41590476Y-101007324D02*
X41590476Y-100483515D01*
X41590476Y-100483515D02*
X41542857Y-100388277D01*
X41542857Y-100388277D02*
X41447619Y-100340658D01*
X41447619Y-100340658D02*
X41257143Y-100340658D01*
X41257143Y-100340658D02*
X41161905Y-100388277D01*
X41590476Y-100959705D02*
X41495238Y-101007324D01*
X41495238Y-101007324D02*
X41257143Y-101007324D01*
X41257143Y-101007324D02*
X41161905Y-100959705D01*
X41161905Y-100959705D02*
X41114286Y-100864467D01*
X41114286Y-100864467D02*
X41114286Y-100769229D01*
X41114286Y-100769229D02*
X41161905Y-100673991D01*
X41161905Y-100673991D02*
X41257143Y-100626372D01*
X41257143Y-100626372D02*
X41495238Y-100626372D01*
X41495238Y-100626372D02*
X41590476Y-100578753D01*
X42209524Y-101007324D02*
X42114286Y-100959705D01*
X42114286Y-100959705D02*
X42066667Y-100864467D01*
X42066667Y-100864467D02*
X42066667Y-100007324D01*
X42495239Y-101388277D02*
X42542858Y-101340658D01*
X42542858Y-101340658D02*
X42638096Y-101197801D01*
X42638096Y-101197801D02*
X42685715Y-101102563D01*
X42685715Y-101102563D02*
X42733334Y-100959705D01*
X42733334Y-100959705D02*
X42780953Y-100721610D01*
X42780953Y-100721610D02*
X42780953Y-100531134D01*
X42780953Y-100531134D02*
X42733334Y-100293039D01*
X42733334Y-100293039D02*
X42685715Y-100150182D01*
X42685715Y-100150182D02*
X42638096Y-100054944D01*
X42638096Y-100054944D02*
X42542858Y-99912086D01*
X42542858Y-99912086D02*
X42495239Y-99864467D01*
%TO.C,PC RX*%
X36061905Y-71029380D02*
X36061905Y-70029380D01*
X36061905Y-70029380D02*
X36442857Y-70029380D01*
X36442857Y-70029380D02*
X36538095Y-70077000D01*
X36538095Y-70077000D02*
X36585714Y-70124619D01*
X36585714Y-70124619D02*
X36633333Y-70219857D01*
X36633333Y-70219857D02*
X36633333Y-70362714D01*
X36633333Y-70362714D02*
X36585714Y-70457952D01*
X36585714Y-70457952D02*
X36538095Y-70505571D01*
X36538095Y-70505571D02*
X36442857Y-70553190D01*
X36442857Y-70553190D02*
X36061905Y-70553190D01*
X37633333Y-70934142D02*
X37585714Y-70981761D01*
X37585714Y-70981761D02*
X37442857Y-71029380D01*
X37442857Y-71029380D02*
X37347619Y-71029380D01*
X37347619Y-71029380D02*
X37204762Y-70981761D01*
X37204762Y-70981761D02*
X37109524Y-70886523D01*
X37109524Y-70886523D02*
X37061905Y-70791285D01*
X37061905Y-70791285D02*
X37014286Y-70600809D01*
X37014286Y-70600809D02*
X37014286Y-70457952D01*
X37014286Y-70457952D02*
X37061905Y-70267476D01*
X37061905Y-70267476D02*
X37109524Y-70172238D01*
X37109524Y-70172238D02*
X37204762Y-70077000D01*
X37204762Y-70077000D02*
X37347619Y-70029380D01*
X37347619Y-70029380D02*
X37442857Y-70029380D01*
X37442857Y-70029380D02*
X37585714Y-70077000D01*
X37585714Y-70077000D02*
X37633333Y-70124619D01*
X39233333Y-71029380D02*
X38900000Y-70553190D01*
X38661905Y-71029380D02*
X38661905Y-70029380D01*
X38661905Y-70029380D02*
X39042857Y-70029380D01*
X39042857Y-70029380D02*
X39138095Y-70077000D01*
X39138095Y-70077000D02*
X39185714Y-70124619D01*
X39185714Y-70124619D02*
X39233333Y-70219857D01*
X39233333Y-70219857D02*
X39233333Y-70362714D01*
X39233333Y-70362714D02*
X39185714Y-70457952D01*
X39185714Y-70457952D02*
X39138095Y-70505571D01*
X39138095Y-70505571D02*
X39042857Y-70553190D01*
X39042857Y-70553190D02*
X38661905Y-70553190D01*
X39566667Y-70029380D02*
X40233333Y-71029380D01*
X40233333Y-70029380D02*
X39566667Y-71029380D01*
D14*
%TO.C,R1*%
X49196666Y-46454761D02*
X48529999Y-45502380D01*
X48053809Y-46454761D02*
X48053809Y-44454761D01*
X48053809Y-44454761D02*
X48815714Y-44454761D01*
X48815714Y-44454761D02*
X49006190Y-44550000D01*
X49006190Y-44550000D02*
X49101428Y-44645238D01*
X49101428Y-44645238D02*
X49196666Y-44835714D01*
X49196666Y-44835714D02*
X49196666Y-45121428D01*
X49196666Y-45121428D02*
X49101428Y-45311904D01*
X49101428Y-45311904D02*
X49006190Y-45407142D01*
X49006190Y-45407142D02*
X48815714Y-45502380D01*
X48815714Y-45502380D02*
X48053809Y-45502380D01*
X51101428Y-46454761D02*
X49958571Y-46454761D01*
X50529999Y-46454761D02*
X50529999Y-44454761D01*
X50529999Y-44454761D02*
X50339523Y-44740476D01*
X50339523Y-44740476D02*
X50149047Y-44930952D01*
X50149047Y-44930952D02*
X49958571Y-45026190D01*
D11*
%TO.C,1n4148*%
X65238571Y-65337380D02*
X64667143Y-65337380D01*
X64952857Y-65337380D02*
X64952857Y-64337380D01*
X64952857Y-64337380D02*
X64857619Y-64480238D01*
X64857619Y-64480238D02*
X64762381Y-64575476D01*
X64762381Y-64575476D02*
X64667143Y-64623095D01*
X65667143Y-64670714D02*
X65667143Y-65337380D01*
X65667143Y-64765952D02*
X65714762Y-64718333D01*
X65714762Y-64718333D02*
X65810000Y-64670714D01*
X65810000Y-64670714D02*
X65952857Y-64670714D01*
X65952857Y-64670714D02*
X66048095Y-64718333D01*
X66048095Y-64718333D02*
X66095714Y-64813571D01*
X66095714Y-64813571D02*
X66095714Y-65337380D01*
X67000476Y-64670714D02*
X67000476Y-65337380D01*
X66762381Y-64289761D02*
X66524286Y-65004047D01*
X66524286Y-65004047D02*
X67143333Y-65004047D01*
X68048095Y-65337380D02*
X67476667Y-65337380D01*
X67762381Y-65337380D02*
X67762381Y-64337380D01*
X67762381Y-64337380D02*
X67667143Y-64480238D01*
X67667143Y-64480238D02*
X67571905Y-64575476D01*
X67571905Y-64575476D02*
X67476667Y-64623095D01*
X68905238Y-64670714D02*
X68905238Y-65337380D01*
X68667143Y-64289761D02*
X68429048Y-65004047D01*
X68429048Y-65004047D02*
X69048095Y-65004047D01*
X69571905Y-64765952D02*
X69476667Y-64718333D01*
X69476667Y-64718333D02*
X69429048Y-64670714D01*
X69429048Y-64670714D02*
X69381429Y-64575476D01*
X69381429Y-64575476D02*
X69381429Y-64527857D01*
X69381429Y-64527857D02*
X69429048Y-64432619D01*
X69429048Y-64432619D02*
X69476667Y-64385000D01*
X69476667Y-64385000D02*
X69571905Y-64337380D01*
X69571905Y-64337380D02*
X69762381Y-64337380D01*
X69762381Y-64337380D02*
X69857619Y-64385000D01*
X69857619Y-64385000D02*
X69905238Y-64432619D01*
X69905238Y-64432619D02*
X69952857Y-64527857D01*
X69952857Y-64527857D02*
X69952857Y-64575476D01*
X69952857Y-64575476D02*
X69905238Y-64670714D01*
X69905238Y-64670714D02*
X69857619Y-64718333D01*
X69857619Y-64718333D02*
X69762381Y-64765952D01*
X69762381Y-64765952D02*
X69571905Y-64765952D01*
X69571905Y-64765952D02*
X69476667Y-64813571D01*
X69476667Y-64813571D02*
X69429048Y-64861190D01*
X69429048Y-64861190D02*
X69381429Y-64956428D01*
X69381429Y-64956428D02*
X69381429Y-65146904D01*
X69381429Y-65146904D02*
X69429048Y-65242142D01*
X69429048Y-65242142D02*
X69476667Y-65289761D01*
X69476667Y-65289761D02*
X69571905Y-65337380D01*
X69571905Y-65337380D02*
X69762381Y-65337380D01*
X69762381Y-65337380D02*
X69857619Y-65289761D01*
X69857619Y-65289761D02*
X69905238Y-65242142D01*
X69905238Y-65242142D02*
X69952857Y-65146904D01*
X69952857Y-65146904D02*
X69952857Y-64956428D01*
X69952857Y-64956428D02*
X69905238Y-64861190D01*
X69905238Y-64861190D02*
X69857619Y-64813571D01*
X69857619Y-64813571D02*
X69762381Y-64765952D01*
X73398095Y-64767380D02*
X73398095Y-63767380D01*
X73969523Y-64767380D02*
X73540952Y-64195952D01*
X73969523Y-63767380D02*
X73398095Y-64338809D01*
%TO.C,PC GND*%
X35514286Y-91349380D02*
X35514286Y-90349380D01*
X35514286Y-90349380D02*
X35895238Y-90349380D01*
X35895238Y-90349380D02*
X35990476Y-90397000D01*
X35990476Y-90397000D02*
X36038095Y-90444619D01*
X36038095Y-90444619D02*
X36085714Y-90539857D01*
X36085714Y-90539857D02*
X36085714Y-90682714D01*
X36085714Y-90682714D02*
X36038095Y-90777952D01*
X36038095Y-90777952D02*
X35990476Y-90825571D01*
X35990476Y-90825571D02*
X35895238Y-90873190D01*
X35895238Y-90873190D02*
X35514286Y-90873190D01*
X37085714Y-91254142D02*
X37038095Y-91301761D01*
X37038095Y-91301761D02*
X36895238Y-91349380D01*
X36895238Y-91349380D02*
X36800000Y-91349380D01*
X36800000Y-91349380D02*
X36657143Y-91301761D01*
X36657143Y-91301761D02*
X36561905Y-91206523D01*
X36561905Y-91206523D02*
X36514286Y-91111285D01*
X36514286Y-91111285D02*
X36466667Y-90920809D01*
X36466667Y-90920809D02*
X36466667Y-90777952D01*
X36466667Y-90777952D02*
X36514286Y-90587476D01*
X36514286Y-90587476D02*
X36561905Y-90492238D01*
X36561905Y-90492238D02*
X36657143Y-90397000D01*
X36657143Y-90397000D02*
X36800000Y-90349380D01*
X36800000Y-90349380D02*
X36895238Y-90349380D01*
X36895238Y-90349380D02*
X37038095Y-90397000D01*
X37038095Y-90397000D02*
X37085714Y-90444619D01*
X38638095Y-90397000D02*
X38542857Y-90349380D01*
X38542857Y-90349380D02*
X38400000Y-90349380D01*
X38400000Y-90349380D02*
X38257143Y-90397000D01*
X38257143Y-90397000D02*
X38161905Y-90492238D01*
X38161905Y-90492238D02*
X38114286Y-90587476D01*
X38114286Y-90587476D02*
X38066667Y-90777952D01*
X38066667Y-90777952D02*
X38066667Y-90920809D01*
X38066667Y-90920809D02*
X38114286Y-91111285D01*
X38114286Y-91111285D02*
X38161905Y-91206523D01*
X38161905Y-91206523D02*
X38257143Y-91301761D01*
X38257143Y-91301761D02*
X38400000Y-91349380D01*
X38400000Y-91349380D02*
X38495238Y-91349380D01*
X38495238Y-91349380D02*
X38638095Y-91301761D01*
X38638095Y-91301761D02*
X38685714Y-91254142D01*
X38685714Y-91254142D02*
X38685714Y-90920809D01*
X38685714Y-90920809D02*
X38495238Y-90920809D01*
X39114286Y-91349380D02*
X39114286Y-90349380D01*
X39114286Y-90349380D02*
X39685714Y-91349380D01*
X39685714Y-91349380D02*
X39685714Y-90349380D01*
X40161905Y-91349380D02*
X40161905Y-90349380D01*
X40161905Y-90349380D02*
X40400000Y-90349380D01*
X40400000Y-90349380D02*
X40542857Y-90397000D01*
X40542857Y-90397000D02*
X40638095Y-90492238D01*
X40638095Y-90492238D02*
X40685714Y-90587476D01*
X40685714Y-90587476D02*
X40733333Y-90777952D01*
X40733333Y-90777952D02*
X40733333Y-90920809D01*
X40733333Y-90920809D02*
X40685714Y-91111285D01*
X40685714Y-91111285D02*
X40638095Y-91206523D01*
X40638095Y-91206523D02*
X40542857Y-91301761D01*
X40542857Y-91301761D02*
X40400000Y-91349380D01*
X40400000Y-91349380D02*
X40161905Y-91349380D01*
D15*
%TO.C,PIN 24*%
X82480000Y-76200000D02*
G75*
G03*
X82480000Y-76200000I-1200000J0D01*
G01*
%TO.C,PC TX*%
X39300000Y-83820000D02*
G75*
G03*
X39300000Y-83820000I-1200000J0D01*
G01*
%TO.C,R2*%
X64540000Y-45720000D02*
X65230000Y-45720000D01*
X65230000Y-44000000D02*
X65230000Y-47440000D01*
X65230000Y-47440000D02*
X74470000Y-47440000D01*
X74470000Y-44000000D02*
X65230000Y-44000000D01*
X74470000Y-47440000D02*
X74470000Y-44000000D01*
X75160000Y-45720000D02*
X74470000Y-45720000D01*
%TO.C,PIN 20*%
X82480000Y-83820000D02*
G75*
G03*
X82480000Y-83820000I-1200000J0D01*
G01*
%TO.C,PIN 14*%
X82480000Y-60960000D02*
G75*
G03*
X82480000Y-60960000I-1200000J0D01*
G01*
%TO.C,PIN 22*%
X82480000Y-91440000D02*
G75*
G03*
X82480000Y-91440000I-1200000J0D01*
G01*
%TO.C,PIN 17*%
X82480000Y-68580000D02*
G75*
G03*
X82480000Y-68580000I-1200000J0D01*
G01*
%TO.C,5V (optional)*%
X39300000Y-103637944D02*
G75*
G03*
X39300000Y-103637944I-1200000J0D01*
G01*
%TO.C,PC RX*%
X39300000Y-73660000D02*
G75*
G03*
X39300000Y-73660000I-1200000J0D01*
G01*
%TO.C,R1*%
X44220000Y-45720000D02*
X44910000Y-45720000D01*
X44910000Y-44000000D02*
X44910000Y-47440000D01*
X44910000Y-47440000D02*
X54150000Y-47440000D01*
X54150000Y-44000000D02*
X44910000Y-44000000D01*
X54150000Y-47440000D02*
X54150000Y-44000000D01*
X54840000Y-45720000D02*
X54150000Y-45720000D01*
%TO.C,1n4148*%
X72020000Y-62000000D02*
X71880000Y-62000000D01*
X71880000Y-63970000D02*
X71880000Y-60030000D01*
X71880000Y-60030000D02*
X62740000Y-60030000D01*
X70545000Y-63970000D02*
X70545000Y-60030000D01*
X70425000Y-63970000D02*
X70425000Y-60030000D01*
X70305000Y-63970000D02*
X70305000Y-60030000D01*
X62740000Y-63970000D02*
X71880000Y-63970000D01*
X62740000Y-60030000D02*
X62740000Y-63970000D01*
X62600000Y-62000000D02*
X62740000Y-62000000D01*
%TO.C,PC GND*%
X39300000Y-93980000D02*
G75*
G03*
X39300000Y-93980000I-1200000J0D01*
G01*
%TD*%
M02*
